<?xml version="1.0" encoding="UTF-8" standalone="no"?>
<!DOCTYPE svg PUBLIC "-//W3C//DTD SVG 1.1//EN"
 "http://www.w3.org/Graphics/SVG/1.1/DTD/svg11.dtd">
<!-- Generated by graphviz version 2.47.0 (20210316.0004)
 -->
<!-- Title: dependencies Pages: 1 -->
<svg width="504pt" height="284pt"
 viewBox="0.00 0.00 504.00 284.00" xmlns="http://www.w3.org/2000/svg" xmlns:xlink="http://www.w3.org/1999/xlink">
<g id="graph0" class="graph" transform="scale(1 1) rotate(0) translate(4 280)">
<title>dependencies</title>
<polygon fill="white" stroke="transparent" points="-4,4 -4,-280 500,-280 500,4 -4,4"/>
<text text-anchor="start" x="227.01" y="-42.4" font-family="Times-12" font-weight="bold" font-size="14.00">Legend</text>
<polygon fill="#ffffb3" stroke="transparent" points="14,-10 14,-30 34,-30 34,-10 14,-10"/>
<text text-anchor="start" x="37.63" y="-15.4" font-family="Times-12" font-size="14.00"> &#160;Declarations</text>
<polygon fill="#8dd3c7" stroke="transparent" points="127,-10 127,-30 147,-30 147,-10 127,-10"/>
<text text-anchor="start" x="150.73" y="-15.4" font-family="Times-12" font-size="14.00"> &#160;Module</text>
<polygon fill="#80b1d3" stroke="transparent" points="213,-10 213,-30 233,-30 233,-10 213,-10"/>
<text text-anchor="start" x="236.78" y="-15.4" font-family="Times-12" font-size="14.00"> &#160;Bootstrap</text>
<polygon fill="#fdb462" stroke="transparent" points="310,-10 310,-30 330,-30 330,-10 310,-10"/>
<text text-anchor="start" x="333.67" y="-15.4" font-family="Times-12" font-size="14.00"> &#160;Providers</text>
<polygon fill="#fb8072" stroke="transparent" points="406,-10 406,-30 426,-30 426,-10 406,-10"/>
<text text-anchor="start" x="429.73" y="-15.4" font-family="Times-12" font-size="14.00"> &#160;Exports</text>
<g id="clust1" class="cluster">
<title>cluster_CommonModule</title>
<polygon fill="none" stroke="black" stroke-dasharray="1,5" points="73,-70 73,-268 423,-268 423,-70 73,-70"/>
</g>
<g id="clust3" class="cluster">
<title>cluster_CommonModule_imports</title>
<polygon fill="none" stroke="black" points="257,-78 257,-130 415,-130 415,-78 257,-78"/>
</g>
<g id="clust4" class="cluster">
<title>cluster_CommonModule_exports</title>
<polygon fill="none" stroke="black" points="185,-208 185,-260 315,-260 315,-208 185,-208"/>
</g>
<g id="clust6" class="cluster">
<title>cluster_CommonModule_providers</title>
<polygon fill="none" stroke="black" points="81,-78 81,-130 249,-130 249,-78 81,-78"/>
</g>
<!-- QushahConfigModule -->
<g id="node1" class="node">
<title>QushahConfigModule</title>
<polygon fill="#8dd3c7" stroke="black" points="406.7,-122 403.7,-126 382.7,-126 379.7,-122 265.3,-122 265.3,-86 406.7,-86 406.7,-122"/>
<text text-anchor="middle" x="336" y="-99.8" font-family="Times,serif" font-size="14.00">QushahConfigModule</text>
</g>
<!-- CommonModule -->
<g id="node2" class="node">
<title>CommonModule</title>
<polygon fill="#8dd3c7" stroke="black" points="305.67,-187 302.67,-191 281.67,-191 278.67,-187 194.33,-187 194.33,-151 305.67,-151 305.67,-187"/>
<text text-anchor="middle" x="250" y="-164.8" font-family="Times,serif" font-size="14.00">CommonModule</text>
</g>
<!-- QushahConfigModule&#45;&gt;CommonModule -->
<g id="edge1" class="edge">
<title>QushahConfigModule&#45;&gt;CommonModule</title>
<path fill="none" stroke="black" d="M285.62,-122.11C285.62,-122.11 285.62,-140.99 285.62,-140.99"/>
<polygon fill="black" stroke="black" points="282.12,-140.99 285.62,-150.99 289.12,-140.99 282.12,-140.99"/>
</g>
<!-- CommonService  -->
<g id="node3" class="node">
<title>CommonService </title>
<polygon fill="#fb8072" stroke="black" points="306.6,-252 193.4,-252 193.4,-216 306.6,-216 306.6,-252"/>
<text text-anchor="middle" x="250" y="-229.8" font-family="Times,serif" font-size="14.00">CommonService </text>
</g>
<!-- CommonModule&#45;&gt;CommonService  -->
<g id="edge2" class="edge">
<title>CommonModule&#45;&gt;CommonService </title>
<path fill="none" stroke="black" stroke-dasharray="5,2" d="M250,-187.11C250,-187.11 250,-205.99 250,-205.99"/>
<polygon fill="black" stroke="black" points="246.5,-205.99 250,-215.99 253.5,-205.99 246.5,-205.99"/>
</g>
<!-- CommonService -->
<g id="node4" class="node">
<title>CommonService</title>
<ellipse fill="#fdb462" stroke="black" cx="165" cy="-104" rx="75.88" ry="18"/>
<text text-anchor="middle" x="165" y="-99.8" font-family="Times,serif" font-size="14.00">CommonService</text>
</g>
<!-- CommonService&#45;&gt;CommonModule -->
<g id="edge3" class="edge">
<title>CommonService&#45;&gt;CommonModule</title>
<path fill="none" stroke="black" d="M217.55,-117.15C217.55,-117.15 217.55,-140.69 217.55,-140.69"/>
<polygon fill="black" stroke="black" points="214.05,-140.69 217.55,-150.69 221.05,-140.69 214.05,-140.69"/>
</g>
</g>
</svg>
