<?xml version="1.0" encoding="UTF-8" standalone="no"?>
<!DOCTYPE svg PUBLIC "-//W3C//DTD SVG 1.1//EN"
 "http://www.w3.org/Graphics/SVG/1.1/DTD/svg11.dtd">
<!-- Generated by graphviz version 2.47.0 (20210316.0004)
 -->
<!-- Title: dependencies Pages: 1 -->
<svg width="955pt" height="211pt"
 viewBox="0.00 0.00 955.00 211.00" xmlns="http://www.w3.org/2000/svg" xmlns:xlink="http://www.w3.org/1999/xlink">
<g id="graph0" class="graph" transform="scale(1 1) rotate(0) translate(4 207)">
<title>dependencies</title>
<polygon fill="white" stroke="transparent" points="-4,4 -4,-207 951,-207 951,4 -4,4"/>
<text text-anchor="start" x="452.51" y="-42.4" font-family="Times-12" font-weight="bold" font-size="14.00">Legend</text>
<polygon fill="#ffffb3" stroke="transparent" points="239.5,-10 239.5,-30 259.5,-30 259.5,-10 239.5,-10"/>
<text text-anchor="start" x="263.13" y="-15.4" font-family="Times-12" font-size="14.00"> &#160;Declarations</text>
<polygon fill="#8dd3c7" stroke="transparent" points="352.5,-10 352.5,-30 372.5,-30 372.5,-10 352.5,-10"/>
<text text-anchor="start" x="376.23" y="-15.4" font-family="Times-12" font-size="14.00"> &#160;Module</text>
<polygon fill="#80b1d3" stroke="transparent" points="438.5,-10 438.5,-30 458.5,-30 458.5,-10 438.5,-10"/>
<text text-anchor="start" x="462.28" y="-15.4" font-family="Times-12" font-size="14.00"> &#160;Bootstrap</text>
<polygon fill="#fdb462" stroke="transparent" points="535.5,-10 535.5,-30 555.5,-30 555.5,-10 535.5,-10"/>
<text text-anchor="start" x="559.17" y="-15.4" font-family="Times-12" font-size="14.00"> &#160;Providers</text>
<polygon fill="#fb8072" stroke="transparent" points="631.5,-10 631.5,-30 651.5,-30 651.5,-10 631.5,-10"/>
<text text-anchor="start" x="655.23" y="-15.4" font-family="Times-12" font-size="14.00"> &#160;Exports</text>
<g id="clust1" class="cluster">
<title>cluster_AuthModule</title>
<polygon fill="none" stroke="black" stroke-dasharray="1,5" points="8,-70 8,-195 939,-195 939,-70 8,-70"/>
</g>
<g id="clust3" class="cluster">
<title>cluster_AuthModule_imports</title>
<polygon fill="none" stroke="black" points="438,-78 438,-130 931,-130 931,-78 438,-78"/>
</g>
<g id="clust6" class="cluster">
<title>cluster_AuthModule_providers</title>
<polygon fill="none" stroke="black" points="16,-78 16,-130 430,-130 430,-78 16,-78"/>
</g>
<!-- CommonModule -->
<g id="node1" class="node">
<title>CommonModule</title>
<polygon fill="#8dd3c7" stroke="black" points="922.67,-122 919.67,-126 898.67,-126 895.67,-122 811.33,-122 811.33,-86 922.67,-86 922.67,-122"/>
<text text-anchor="middle" x="867" y="-99.8" font-family="Times,serif" font-size="14.00">CommonModule</text>
</g>
<!-- AuthModule -->
<g id="node4" class="node">
<title>AuthModule</title>
<polygon fill="#8dd3c7" stroke="black" points="483.55,-187 480.55,-191 459.55,-191 456.55,-187 396.45,-187 396.45,-151 483.55,-151 483.55,-187"/>
<text text-anchor="middle" x="440" y="-164.8" font-family="Times,serif" font-size="14.00">AuthModule</text>
</g>
<!-- CommonModule&#45;&gt;AuthModule -->
<g id="edge1" class="edge">
<title>CommonModule&#45;&gt;AuthModule</title>
<path fill="none" stroke="black" d="M867,-122.28C867,-143.32 867,-175 867,-175 867,-175 493.69,-175 493.69,-175"/>
<polygon fill="black" stroke="black" points="493.69,-171.5 483.69,-175 493.69,-178.5 493.69,-171.5"/>
</g>
<!-- GraphQLMicroserviceModule -->
<g id="node2" class="node">
<title>GraphQLMicroserviceModule</title>
<polygon fill="#8dd3c7" stroke="black" points="793.54,-122 790.54,-126 769.54,-126 766.54,-122 606.46,-122 606.46,-86 793.54,-86 793.54,-122"/>
<text text-anchor="middle" x="700" y="-99.8" font-family="Times,serif" font-size="14.00">GraphQLMicroserviceModule</text>
</g>
<!-- GraphQLMicroserviceModule&#45;&gt;AuthModule -->
<g id="edge2" class="edge">
<title>GraphQLMicroserviceModule&#45;&gt;AuthModule</title>
<path fill="none" stroke="black" d="M700,-122.02C700,-139.37 700,-163 700,-163 700,-163 493.81,-163 493.81,-163"/>
<polygon fill="black" stroke="black" points="493.81,-159.5 483.81,-163 493.81,-166.5 493.81,-159.5"/>
</g>
<!-- JwtAuthGuardModule -->
<g id="node3" class="node">
<title>JwtAuthGuardModule</title>
<polygon fill="#8dd3c7" stroke="black" points="587.97,-122 584.97,-126 563.97,-126 560.97,-122 446.03,-122 446.03,-86 587.97,-86 587.97,-122"/>
<text text-anchor="middle" x="517" y="-99.8" font-family="Times,serif" font-size="14.00">JwtAuthGuardModule</text>
</g>
<!-- JwtAuthGuardModule&#45;&gt;AuthModule -->
<g id="edge3" class="edge">
<title>JwtAuthGuardModule&#45;&gt;AuthModule</title>
<path fill="none" stroke="black" d="M464.89,-122.11C464.89,-122.11 464.89,-140.99 464.89,-140.99"/>
<polygon fill="black" stroke="black" points="461.39,-140.99 464.89,-150.99 468.39,-140.99 461.39,-140.99"/>
</g>
<!-- AuthService -->
<g id="node5" class="node">
<title>AuthService</title>
<ellipse fill="#fdb462" stroke="black" cx="363" cy="-104" rx="59.11" ry="18"/>
<text text-anchor="middle" x="363" y="-99.8" font-family="Times,serif" font-size="14.00">AuthService</text>
</g>
<!-- AuthService&#45;&gt;AuthModule -->
<g id="edge4" class="edge">
<title>AuthService&#45;&gt;AuthModule</title>
<path fill="none" stroke="black" d="M409.27,-115.32C409.27,-115.32 409.27,-140.94 409.27,-140.94"/>
<polygon fill="black" stroke="black" points="405.77,-140.94 409.27,-150.94 412.77,-140.94 405.77,-140.94"/>
</g>
<!-- JwtStrategy -->
<g id="node6" class="node">
<title>JwtStrategy</title>
<ellipse fill="#fdb462" stroke="black" cx="229" cy="-104" rx="56.76" ry="18"/>
<text text-anchor="middle" x="229" y="-99.8" font-family="Times,serif" font-size="14.00">JwtStrategy</text>
</g>
<!-- JwtStrategy&#45;&gt;AuthModule -->
<g id="edge5" class="edge">
<title>JwtStrategy&#45;&gt;AuthModule</title>
<path fill="none" stroke="black" d="M229,-122.02C229,-139.37 229,-163 229,-163 229,-163 386.28,-163 386.28,-163"/>
<polygon fill="black" stroke="black" points="386.28,-166.5 396.28,-163 386.28,-159.5 386.28,-166.5"/>
</g>
<!-- LocalStrategy -->
<g id="node7" class="node">
<title>LocalStrategy</title>
<ellipse fill="#fdb462" stroke="black" cx="89" cy="-104" rx="65.41" ry="18"/>
<text text-anchor="middle" x="89" y="-99.8" font-family="Times,serif" font-size="14.00">LocalStrategy</text>
</g>
<!-- LocalStrategy&#45;&gt;AuthModule -->
<g id="edge6" class="edge">
<title>LocalStrategy&#45;&gt;AuthModule</title>
<path fill="none" stroke="black" d="M89,-122.28C89,-143.32 89,-175 89,-175 89,-175 386.26,-175 386.26,-175"/>
<polygon fill="black" stroke="black" points="386.26,-178.5 396.26,-175 386.26,-171.5 386.26,-178.5"/>
</g>
</g>
</svg>
