<?xml version="1.0" encoding="UTF-8" standalone="no"?>
<!DOCTYPE svg PUBLIC "-//W3C//DTD SVG 1.1//EN"
 "http://www.w3.org/Graphics/SVG/1.1/DTD/svg11.dtd">
<!-- Generated by graphviz version 2.47.0 (20210316.0004)
 -->
<!-- Title: dependencies Pages: 1 -->
<svg width="2575pt" height="287pt"
 viewBox="0.00 0.00 2575.00 287.00" xmlns="http://www.w3.org/2000/svg" xmlns:xlink="http://www.w3.org/1999/xlink">
<g id="graph0" class="graph" transform="scale(1 1) rotate(0) translate(4 283)">
<title>dependencies</title>
<polygon fill="white" stroke="transparent" points="-4,4 -4,-283 2571,-283 2571,4 -4,4"/>
<text text-anchor="start" x="1262.51" y="-42.4" font-family="Times-12" font-weight="bold" font-size="14.00">Legend</text>
<polygon fill="#ffffb3" stroke="transparent" points="1049.5,-10 1049.5,-30 1069.5,-30 1069.5,-10 1049.5,-10"/>
<text text-anchor="start" x="1073.13" y="-15.4" font-family="Times-12" font-size="14.00"> &#160;Declarations</text>
<polygon fill="#8dd3c7" stroke="transparent" points="1162.5,-10 1162.5,-30 1182.5,-30 1182.5,-10 1162.5,-10"/>
<text text-anchor="start" x="1186.23" y="-15.4" font-family="Times-12" font-size="14.00"> &#160;Module</text>
<polygon fill="#80b1d3" stroke="transparent" points="1248.5,-10 1248.5,-30 1268.5,-30 1268.5,-10 1248.5,-10"/>
<text text-anchor="start" x="1272.28" y="-15.4" font-family="Times-12" font-size="14.00"> &#160;Bootstrap</text>
<polygon fill="#fdb462" stroke="transparent" points="1345.5,-10 1345.5,-30 1365.5,-30 1365.5,-10 1345.5,-10"/>
<text text-anchor="start" x="1369.17" y="-15.4" font-family="Times-12" font-size="14.00"> &#160;Providers</text>
<polygon fill="#fb8072" stroke="transparent" points="1441.5,-10 1441.5,-30 1461.5,-30 1461.5,-10 1441.5,-10"/>
<text text-anchor="start" x="1465.23" y="-15.4" font-family="Times-12" font-size="14.00"> &#160;Exports</text>
<g id="clust7" class="cluster">
<title>cluster_AuthModule</title>
<polygon fill="none" stroke="black" stroke-dasharray="1,5" points="730,-146 730,-271 1221,-271 1221,-146 730,-146"/>
</g>
<g id="clust9" class="cluster">
<title>cluster_AuthModule_imports</title>
<polygon fill="none" stroke="black" points="880,-154 880,-206 1213,-206 1213,-154 880,-154"/>
</g>
<g id="clust12" class="cluster">
<title>cluster_AuthModule_providers</title>
<polygon fill="none" stroke="black" points="738,-154 738,-206 872,-206 872,-154 738,-154"/>
</g>
<g id="clust19" class="cluster">
<title>cluster_CommonModule</title>
<polygon fill="none" stroke="black" stroke-dasharray="1,5" points="695,-70 695,-138 1163,-138 1163,-70 695,-70"/>
</g>
<g id="clust21" class="cluster">
<title>cluster_CommonModule_imports</title>
<polygon fill="none" stroke="black" points="1017,-78 1017,-130 1155,-130 1155,-78 1017,-78"/>
</g>
<g id="clust22" class="cluster">
<title>cluster_CommonModule_exports</title>
<polygon fill="none" stroke="black" points="879,-78 879,-130 1009,-130 1009,-78 879,-78"/>
</g>
<g id="clust24" class="cluster">
<title>cluster_CommonModule_providers</title>
<polygon fill="none" stroke="black" points="703,-78 703,-130 871,-130 871,-78 703,-78"/>
</g>
<g id="clust31" class="cluster">
<title>cluster_DocumentationModule</title>
<polygon fill="none" stroke="black" stroke-dasharray="1,5" points="2327,-70 2327,-206 2559,-206 2559,-70 2327,-70"/>
</g>
<g id="clust36" class="cluster">
<title>cluster_DocumentationModule_providers</title>
<polygon fill="none" stroke="black" points="2335,-78 2335,-130 2551,-130 2551,-78 2335,-78"/>
</g>
<g id="clust37" class="cluster">
<title>cluster_EscrowModule</title>
<polygon fill="none" stroke="black" stroke-dasharray="1,5" points="8,-146 8,-271 178,-271 178,-146 8,-146"/>
</g>
<g id="clust42" class="cluster">
<title>cluster_EscrowModule_providers</title>
<polygon fill="none" stroke="black" points="16,-154 16,-206 170,-206 170,-154 16,-154"/>
</g>
<g id="clust43" class="cluster">
<title>cluster_GatewayModule</title>
<polygon fill="none" stroke="black" stroke-dasharray="1,5" points="186,-146 186,-271 552,-271 552,-146 186,-146"/>
</g>
<g id="clust45" class="cluster">
<title>cluster_GatewayModule_imports</title>
<polygon fill="none" stroke="black" points="366,-154 366,-206 544,-206 544,-154 366,-154"/>
</g>
<g id="clust48" class="cluster">
<title>cluster_GatewayModule_providers</title>
<polygon fill="none" stroke="black" points="194,-154 194,-206 358,-206 358,-154 194,-154"/>
</g>
<g id="clust61" class="cluster">
<title>cluster_MediaModule</title>
<polygon fill="none" stroke="black" stroke-dasharray="1,5" points="560,-146 560,-271 722,-271 722,-146 560,-146"/>
</g>
<g id="clust66" class="cluster">
<title>cluster_MediaModule_providers</title>
<polygon fill="none" stroke="black" points="568,-154 568,-206 714,-206 714,-154 568,-154"/>
</g>
<g id="clust67" class="cluster">
<title>cluster_NotificationModule</title>
<polygon fill="none" stroke="black" stroke-dasharray="1,5" points="1229,-146 1229,-271 1435,-271 1435,-146 1229,-146"/>
</g>
<g id="clust72" class="cluster">
<title>cluster_NotificationModule_providers</title>
<polygon fill="none" stroke="black" points="1237,-154 1237,-206 1427,-206 1427,-154 1237,-154"/>
</g>
<g id="clust73" class="cluster">
<title>cluster_OrganizationModule</title>
<polygon fill="none" stroke="black" stroke-dasharray="1,5" points="1443,-146 1443,-271 1789,-271 1789,-146 1443,-146"/>
</g>
<g id="clust75" class="cluster">
<title>cluster_OrganizationModule_imports</title>
<polygon fill="none" stroke="black" points="1655,-154 1655,-206 1781,-206 1781,-154 1655,-154"/>
</g>
<g id="clust78" class="cluster">
<title>cluster_OrganizationModule_providers</title>
<polygon fill="none" stroke="black" points="1451,-154 1451,-206 1647,-206 1647,-154 1451,-154"/>
</g>
<g id="clust79" class="cluster">
<title>cluster_PaymentModule</title>
<polygon fill="none" stroke="black" stroke-dasharray="1,5" points="1797,-146 1797,-271 1977,-271 1977,-146 1797,-146"/>
</g>
<g id="clust84" class="cluster">
<title>cluster_PaymentModule_providers</title>
<polygon fill="none" stroke="black" points="1805,-154 1805,-206 1969,-206 1969,-154 1805,-154"/>
</g>
<g id="clust85" class="cluster">
<title>cluster_PropertyModule</title>
<polygon fill="none" stroke="black" stroke-dasharray="1,5" points="1985,-146 1985,-271 2163,-271 2163,-146 1985,-146"/>
</g>
<g id="clust90" class="cluster">
<title>cluster_PropertyModule_providers</title>
<polygon fill="none" stroke="black" points="1993,-154 1993,-206 2155,-206 2155,-154 1993,-154"/>
</g>
<g id="clust91" class="cluster">
<title>cluster_UserModule</title>
<polygon fill="none" stroke="black" stroke-dasharray="1,5" points="2171,-146 2171,-271 2319,-271 2319,-146 2171,-146"/>
</g>
<g id="clust96" class="cluster">
<title>cluster_UserModule_providers</title>
<polygon fill="none" stroke="black" points="2179,-154 2179,-206 2311,-206 2311,-154 2179,-154"/>
</g>
<!-- CommonModule -->
<g id="node1" class="node">
<title>CommonModule</title>
<polygon fill="#8dd3c7" stroke="black" points="999.67,-198 996.67,-202 975.67,-202 972.67,-198 888.33,-198 888.33,-162 999.67,-162 999.67,-198"/>
<text text-anchor="middle" x="944" y="-175.8" font-family="Times,serif" font-size="14.00">CommonModule</text>
</g>
<!-- AuthModule -->
<g id="node3" class="node">
<title>AuthModule</title>
<polygon fill="#8dd3c7" stroke="black" points="987.55,-263 984.55,-267 963.55,-267 960.55,-263 900.45,-263 900.45,-227 987.55,-227 987.55,-263"/>
<text text-anchor="middle" x="944" y="-240.8" font-family="Times,serif" font-size="14.00">AuthModule</text>
</g>
<!-- CommonModule&#45;&gt;AuthModule -->
<g id="edge1" class="edge">
<title>CommonModule&#45;&gt;AuthModule</title>
<path fill="none" stroke="black" d="M929.41,-198.11C929.41,-198.11 929.41,-216.99 929.41,-216.99"/>
<polygon fill="black" stroke="black" points="925.91,-216.99 929.41,-226.99 932.91,-216.99 925.91,-216.99"/>
</g>
<!-- CommonService  -->
<g id="node6" class="node">
<title>CommonService </title>
<polygon fill="#fb8072" stroke="black" points="1000.6,-122 887.4,-122 887.4,-86 1000.6,-86 1000.6,-122"/>
<text text-anchor="middle" x="944" y="-99.8" font-family="Times,serif" font-size="14.00">CommonService </text>
</g>
<!-- CommonModule&#45;&gt;CommonService  -->
<g id="edge5" class="edge">
<title>CommonModule&#45;&gt;CommonService </title>
<path fill="none" stroke="black" stroke-dasharray="5,2" d="M944,-161.99C944,-161.99 944,-132.15 944,-132.15"/>
<polygon fill="black" stroke="black" points="947.5,-132.15 944,-122.15 940.5,-132.15 947.5,-132.15"/>
</g>
<!-- EscrowModule -->
<g id="node10" class="node">
<title>EscrowModule</title>
<polygon fill="#8dd3c7" stroke="black" points="169.53,-263 166.53,-267 145.53,-267 142.53,-263 68.47,-263 68.47,-227 169.53,-227 169.53,-263"/>
<text text-anchor="middle" x="119" y="-240.8" font-family="Times,serif" font-size="14.00">EscrowModule</text>
</g>
<!-- CommonModule&#45;&gt;EscrowModule -->
<g id="edge8" class="edge">
<title>CommonModule&#45;&gt;EscrowModule</title>
<path fill="none" stroke="black" d="M891.18,-198.03C891.18,-204.85 891.18,-211 891.18,-211 891.18,-211 167.16,-211 167.16,-211 167.16,-211 167.16,-216.81 167.16,-216.81"/>
<polygon fill="black" stroke="black" points="163.66,-216.81 167.16,-226.81 170.66,-216.81 163.66,-216.81"/>
</g>
<!-- GatewayModule -->
<g id="node13" class="node">
<title>GatewayModule</title>
<polygon fill="#8dd3c7" stroke="black" points="509.8,-263 506.8,-267 485.8,-267 482.8,-263 400.2,-263 400.2,-227 509.8,-227 509.8,-263"/>
<text text-anchor="middle" x="455" y="-240.8" font-family="Times,serif" font-size="14.00">GatewayModule</text>
</g>
<!-- CommonModule&#45;&gt;GatewayModule -->
<g id="edge11" class="edge">
<title>CommonModule&#45;&gt;GatewayModule</title>
<path fill="none" stroke="black" d="M894.2,-198.11C894.2,-207.9 894.2,-218 894.2,-218 894.2,-218 473.22,-218 473.22,-218 473.22,-218 473.22,-218.88 473.22,-218.88"/>
<polygon fill="black" stroke="black" points="469.72,-216.84 473.22,-226.84 476.72,-216.84 469.72,-216.84"/>
</g>
<!-- MediaModule -->
<g id="node15" class="node">
<title>MediaModule</title>
<polygon fill="#8dd3c7" stroke="black" points="713.81,-263 710.81,-267 689.81,-267 686.81,-263 618.19,-263 618.19,-227 713.81,-227 713.81,-263"/>
<text text-anchor="middle" x="666" y="-240.8" font-family="Times,serif" font-size="14.00">MediaModule</text>
</g>
<!-- CommonModule&#45;&gt;MediaModule -->
<g id="edge14" class="edge">
<title>CommonModule&#45;&gt;MediaModule</title>
<path fill="none" stroke="black" d="M897.21,-198.28C897.21,-219.32 897.21,-251 897.21,-251 897.21,-251 723.91,-251 723.91,-251"/>
<polygon fill="black" stroke="black" points="723.91,-247.5 713.91,-251 723.91,-254.5 723.91,-247.5"/>
</g>
<!-- NotificationModule -->
<g id="node17" class="node">
<title>NotificationModule</title>
<polygon fill="#8dd3c7" stroke="black" points="1364.7,-263 1361.7,-267 1340.7,-267 1337.7,-263 1237.3,-263 1237.3,-227 1364.7,-227 1364.7,-263"/>
<text text-anchor="middle" x="1301" y="-240.8" font-family="Times,serif" font-size="14.00">NotificationModule</text>
</g>
<!-- CommonModule&#45;&gt;NotificationModule -->
<g id="edge17" class="edge">
<title>CommonModule&#45;&gt;NotificationModule</title>
<path fill="none" stroke="black" d="M997.42,-198.28C997.42,-219.32 997.42,-251 997.42,-251 997.42,-251 1227.36,-251 1227.36,-251"/>
<polygon fill="black" stroke="black" points="1227.36,-254.5 1237.36,-251 1227.36,-247.5 1227.36,-254.5"/>
</g>
<!-- OrganizationModule -->
<g id="node20" class="node">
<title>OrganizationModule</title>
<polygon fill="#8dd3c7" stroke="black" points="1599.13,-263 1596.13,-267 1575.13,-267 1572.13,-263 1466.87,-263 1466.87,-227 1599.13,-227 1599.13,-263"/>
<text text-anchor="middle" x="1533" y="-240.8" font-family="Times,serif" font-size="14.00">OrganizationModule</text>
</g>
<!-- CommonModule&#45;&gt;OrganizationModule -->
<g id="edge20" class="edge">
<title>CommonModule&#45;&gt;OrganizationModule</title>
<path fill="none" stroke="black" d="M990.19,-198.04C990.19,-210.56 990.19,-225 990.19,-225 990.19,-225 1499.84,-225 1499.84,-225 1499.84,-225 1499.84,-225.18 1499.84,-225.18"/>
<polygon fill="black" stroke="black" points="1496.34,-216.85 1499.84,-226.85 1503.34,-216.85 1496.34,-216.85"/>
</g>
<!-- PaymentModule -->
<g id="node22" class="node">
<title>PaymentModule</title>
<polygon fill="#8dd3c7" stroke="black" points="1913.04,-263 1910.04,-267 1889.04,-267 1886.04,-263 1804.96,-263 1804.96,-227 1913.04,-227 1913.04,-263"/>
<text text-anchor="middle" x="1859" y="-240.8" font-family="Times,serif" font-size="14.00">PaymentModule</text>
</g>
<!-- CommonModule&#45;&gt;PaymentModule -->
<g id="edge24" class="edge">
<title>CommonModule&#45;&gt;PaymentModule</title>
<path fill="none" stroke="black" d="M992.6,-198.32C992.6,-206.79 992.6,-215 992.6,-215 992.6,-215 1807.56,-215 1807.56,-215 1807.56,-215 1807.56,-216.86 1807.56,-216.86"/>
<polygon fill="black" stroke="black" points="1804.06,-216.86 1807.56,-226.86 1811.06,-216.86 1804.06,-216.86"/>
</g>
<!-- PropertyModule -->
<g id="node24" class="node">
<title>PropertyModule</title>
<polygon fill="#8dd3c7" stroke="black" points="2100.76,-263 2097.76,-267 2076.76,-267 2073.76,-263 1993.24,-263 1993.24,-227 2100.76,-227 2100.76,-263"/>
<text text-anchor="middle" x="2047" y="-240.8" font-family="Times,serif" font-size="14.00">PropertyModule</text>
</g>
<!-- CommonModule&#45;&gt;PropertyModule -->
<g id="edge27" class="edge">
<title>CommonModule&#45;&gt;PropertyModule</title>
<path fill="none" stroke="black" d="M995.01,-198.21C995.01,-203.55 995.01,-208 995.01,-208 995.01,-208 1995.67,-208 1995.67,-208 1995.67,-208 1995.67,-216.93 1995.67,-216.93"/>
<polygon fill="black" stroke="black" points="1992.17,-216.93 1995.67,-226.93 1999.17,-216.93 1992.17,-216.93"/>
</g>
<!-- UserModule -->
<g id="node26" class="node">
<title>UserModule</title>
<polygon fill="#8dd3c7" stroke="black" points="2264.98,-263 2261.98,-267 2240.98,-267 2237.98,-263 2179.02,-263 2179.02,-227 2264.98,-227 2264.98,-263"/>
<text text-anchor="middle" x="2222" y="-240.8" font-family="Times,serif" font-size="14.00">UserModule</text>
</g>
<!-- CommonModule&#45;&gt;UserModule -->
<g id="edge30" class="edge">
<title>CommonModule&#45;&gt;UserModule</title>
<path fill="none" stroke="black" d="M958.59,-198.12C958.59,-200.97 958.59,-203 958.59,-203 958.59,-203 2181.6,-203 2181.6,-203 2181.6,-203 2181.6,-216.94 2181.6,-216.94"/>
<polygon fill="black" stroke="black" points="2178.1,-216.94 2181.6,-226.94 2185.1,-216.94 2178.1,-216.94"/>
</g>
<!-- GraphQLMicroserviceModule -->
<g id="node2" class="node">
<title>GraphQLMicroserviceModule</title>
<polygon fill="#8dd3c7" stroke="black" points="1204.54,-198 1201.54,-202 1180.54,-202 1177.54,-198 1017.46,-198 1017.46,-162 1204.54,-162 1204.54,-198"/>
<text text-anchor="middle" x="1111" y="-175.8" font-family="Times,serif" font-size="14.00">GraphQLMicroserviceModule</text>
</g>
<!-- GraphQLMicroserviceModule&#45;&gt;AuthModule -->
<g id="edge2" class="edge">
<title>GraphQLMicroserviceModule&#45;&gt;AuthModule</title>
<path fill="none" stroke="black" d="M1177.8,-198.02C1177.8,-215.37 1177.8,-239 1177.8,-239 1177.8,-239 997.7,-239 997.7,-239"/>
<polygon fill="black" stroke="black" points="997.7,-235.5 987.7,-239 997.7,-242.5 997.7,-235.5"/>
</g>
<!-- GraphQLMicroserviceModule&#45;&gt;EscrowModule -->
<g id="edge9" class="edge">
<title>GraphQLMicroserviceModule&#45;&gt;EscrowModule</title>
<path fill="none" stroke="black" d="M1021.1,-161.89C1021.1,-152.1 1021.1,-142 1021.1,-142 1021.1,-142 164.55,-142 164.55,-142 164.55,-142 164.55,-216.59 164.55,-216.59"/>
<polygon fill="black" stroke="black" points="161.05,-216.59 164.55,-226.59 168.05,-216.59 161.05,-216.59"/>
</g>
<!-- GraphQLMicroserviceModule&#45;&gt;MediaModule -->
<g id="edge15" class="edge">
<title>GraphQLMicroserviceModule&#45;&gt;MediaModule</title>
<path fill="none" stroke="black" d="M1044.2,-198.13C1044.2,-208.71 1044.2,-220 1044.2,-220 1044.2,-220 676.56,-220 676.56,-220 676.56,-220 676.56,-220.68 676.56,-220.68"/>
<polygon fill="black" stroke="black" points="673.06,-216.83 676.56,-226.83 680.06,-216.83 673.06,-216.83"/>
</g>
<!-- GraphQLMicroserviceModule&#45;&gt;NotificationModule -->
<g id="edge18" class="edge">
<title>GraphQLMicroserviceModule&#45;&gt;NotificationModule</title>
<path fill="none" stroke="black" d="M1204.71,-180C1225.44,-180 1241.37,-180 1241.37,-180 1241.37,-180 1241.37,-216.89 1241.37,-216.89"/>
<polygon fill="black" stroke="black" points="1237.87,-216.89 1241.37,-226.89 1244.87,-216.89 1237.87,-216.89"/>
</g>
<!-- GraphQLMicroserviceModule&#45;&gt;OrganizationModule -->
<g id="edge22" class="edge">
<title>GraphQLMicroserviceModule&#45;&gt;OrganizationModule</title>
<path fill="none" stroke="black" d="M1070.92,-198.49C1070.92,-210.14 1070.92,-223 1070.92,-223 1070.92,-223 1533,-223 1533,-223 1533,-223 1533,-223.38 1533,-223.38"/>
<polygon fill="black" stroke="black" points="1529.5,-216.83 1533,-226.83 1536.5,-216.83 1529.5,-216.83"/>
</g>
<!-- GraphQLMicroserviceModule&#45;&gt;PaymentModule -->
<g id="edge25" class="edge">
<title>GraphQLMicroserviceModule&#45;&gt;PaymentModule</title>
<path fill="none" stroke="black" d="M1097.64,-198.04C1097.64,-205.75 1097.64,-213 1097.64,-213 1097.64,-213 1810.39,-213 1810.39,-213 1810.39,-213 1810.39,-216.76 1810.39,-216.76"/>
<polygon fill="black" stroke="black" points="1806.89,-216.76 1810.39,-226.76 1813.89,-216.76 1806.89,-216.76"/>
</g>
<!-- GraphQLMicroserviceModule&#45;&gt;PropertyModule -->
<g id="edge28" class="edge">
<title>GraphQLMicroserviceModule&#45;&gt;PropertyModule</title>
<path fill="none" stroke="black" d="M1124.36,-198.06C1124.36,-202.49 1124.36,-206 1124.36,-206 1124.36,-206 1998.21,-206 1998.21,-206 1998.21,-206 1998.21,-216.87 1998.21,-216.87"/>
<polygon fill="black" stroke="black" points="1994.71,-216.87 1998.21,-226.87 2001.71,-216.87 1994.71,-216.87"/>
</g>
<!-- GraphQLMicroserviceModule&#45;&gt;UserModule -->
<g id="edge31" class="edge">
<title>GraphQLMicroserviceModule&#45;&gt;UserModule</title>
<path fill="none" stroke="black" d="M1151.08,-198.08C1151.08,-199.85 1151.08,-201 1151.08,-201 1151.08,-201 2184.19,-201 2184.19,-201 2184.19,-201 2184.19,-216.85 2184.19,-216.85"/>
<polygon fill="black" stroke="black" points="2180.69,-216.85 2184.19,-226.85 2187.69,-216.85 2180.69,-216.85"/>
</g>
<!-- AuthService -->
<g id="node4" class="node">
<title>AuthService</title>
<ellipse fill="#fdb462" stroke="black" cx="805" cy="-180" rx="59.11" ry="18"/>
<text text-anchor="middle" x="805" y="-175.8" font-family="Times,serif" font-size="14.00">AuthService</text>
</g>
<!-- AuthService&#45;&gt;AuthModule -->
<g id="edge3" class="edge">
<title>AuthService&#45;&gt;AuthModule</title>
<path fill="none" stroke="black" d="M805,-198.02C805,-215.37 805,-239 805,-239 805,-239 890.4,-239 890.4,-239"/>
<polygon fill="black" stroke="black" points="890.4,-242.5 900.4,-239 890.4,-235.5 890.4,-242.5"/>
</g>
<!-- AppConfigModule -->
<g id="node5" class="node">
<title>AppConfigModule</title>
<polygon fill="#8dd3c7" stroke="black" points="1147.05,-122 1144.05,-126 1123.05,-126 1120.05,-122 1024.95,-122 1024.95,-86 1147.05,-86 1147.05,-122"/>
<text text-anchor="middle" x="1086" y="-99.8" font-family="Times,serif" font-size="14.00">AppConfigModule</text>
</g>
<!-- AppConfigModule&#45;&gt;CommonModule -->
<g id="edge4" class="edge">
<title>AppConfigModule&#45;&gt;CommonModule</title>
<path fill="none" stroke="black" d="M1024.69,-104C1015.56,-104 1009.14,-104 1009.14,-104 1009.14,-104 1009.14,-180 1009.14,-180 1009.14,-180 1008.21,-180 1008.21,-180"/>
<polygon fill="black" stroke="black" points="1009.81,-176.5 999.81,-180 1009.81,-183.5 1009.81,-176.5"/>
</g>
<!-- CommonService -->
<g id="node7" class="node">
<title>CommonService</title>
<ellipse fill="#fdb462" stroke="black" cx="787" cy="-104" rx="75.88" ry="18"/>
<text text-anchor="middle" x="787" y="-99.8" font-family="Times,serif" font-size="14.00">CommonService</text>
</g>
<!-- CommonService&#45;&gt;CommonModule -->
<g id="edge6" class="edge">
<title>CommonService&#45;&gt;CommonModule</title>
<path fill="none" stroke="black" d="M863.04,-104C870.71,-104 875.75,-104 875.75,-104 875.75,-104 875.75,-180 875.75,-180 875.75,-180 878.27,-180 878.27,-180"/>
<polygon fill="black" stroke="black" points="878.27,-183.5 888.27,-180 878.27,-176.5 878.27,-183.5"/>
</g>
<!-- DocumentationService -->
<g id="node8" class="node">
<title>DocumentationService</title>
<ellipse fill="#fdb462" stroke="black" cx="2443" cy="-104" rx="99.56" ry="18"/>
<text text-anchor="middle" x="2443" y="-99.8" font-family="Times,serif" font-size="14.00">DocumentationService</text>
</g>
<!-- DocumentationModule -->
<g id="node9" class="node">
<title>DocumentationModule</title>
<polygon fill="#8dd3c7" stroke="black" points="2515.86,-198 2512.86,-202 2491.86,-202 2488.86,-198 2370.14,-198 2370.14,-162 2515.86,-162 2515.86,-198"/>
<text text-anchor="middle" x="2443" y="-175.8" font-family="Times,serif" font-size="14.00">DocumentationModule</text>
</g>
<!-- DocumentationService&#45;&gt;DocumentationModule -->
<g id="edge7" class="edge">
<title>DocumentationService&#45;&gt;DocumentationModule</title>
<path fill="none" stroke="black" d="M2443,-122.01C2443,-122.01 2443,-151.85 2443,-151.85"/>
<polygon fill="black" stroke="black" points="2439.5,-151.85 2443,-161.85 2446.5,-151.85 2439.5,-151.85"/>
</g>
<!-- EscrowService -->
<g id="node11" class="node">
<title>EscrowService</title>
<ellipse fill="#fdb462" stroke="black" cx="93" cy="-180" rx="68.9" ry="18"/>
<text text-anchor="middle" x="93" y="-175.8" font-family="Times,serif" font-size="14.00">EscrowService</text>
</g>
<!-- EscrowService&#45;&gt;EscrowModule -->
<g id="edge10" class="edge">
<title>EscrowService&#45;&gt;EscrowModule</title>
<path fill="none" stroke="black" d="M115.09,-197.08C115.09,-197.08 115.09,-216.9 115.09,-216.9"/>
<polygon fill="black" stroke="black" points="111.59,-216.9 115.09,-226.9 118.59,-216.9 111.59,-216.9"/>
</g>
<!-- GraphQLGatewayModule -->
<g id="node12" class="node">
<title>GraphQLGatewayModule</title>
<polygon fill="#8dd3c7" stroke="black" points="536.44,-198 533.44,-202 512.44,-202 509.44,-198 373.56,-198 373.56,-162 536.44,-162 536.44,-198"/>
<text text-anchor="middle" x="455" y="-175.8" font-family="Times,serif" font-size="14.00">GraphQLGatewayModule</text>
</g>
<!-- GraphQLGatewayModule&#45;&gt;GatewayModule -->
<g id="edge12" class="edge">
<title>GraphQLGatewayModule&#45;&gt;GatewayModule</title>
<path fill="none" stroke="black" d="M436.78,-198.11C436.78,-198.11 436.78,-216.99 436.78,-216.99"/>
<polygon fill="black" stroke="black" points="433.28,-216.99 436.78,-226.99 440.28,-216.99 433.28,-216.99"/>
</g>
<!-- GatewayService -->
<g id="node14" class="node">
<title>GatewayService</title>
<ellipse fill="#fdb462" stroke="black" cx="276" cy="-180" rx="74.11" ry="18"/>
<text text-anchor="middle" x="276" y="-175.8" font-family="Times,serif" font-size="14.00">GatewayService</text>
</g>
<!-- GatewayService&#45;&gt;GatewayModule -->
<g id="edge13" class="edge">
<title>GatewayService&#45;&gt;GatewayModule</title>
<path fill="none" stroke="black" d="M276,-198.11C276,-217.34 276,-245 276,-245 276,-245 390.32,-245 390.32,-245"/>
<polygon fill="black" stroke="black" points="390.32,-248.5 400.32,-245 390.32,-241.5 390.32,-248.5"/>
</g>
<!-- MediaService -->
<g id="node16" class="node">
<title>MediaService</title>
<ellipse fill="#fdb462" stroke="black" cx="641" cy="-180" rx="64.82" ry="18"/>
<text text-anchor="middle" x="641" y="-175.8" font-family="Times,serif" font-size="14.00">MediaService</text>
</g>
<!-- MediaService&#45;&gt;MediaModule -->
<g id="edge16" class="edge">
<title>MediaService&#45;&gt;MediaModule</title>
<path fill="none" stroke="black" d="M647.45,-198.11C647.45,-198.11 647.45,-216.99 647.45,-216.99"/>
<polygon fill="black" stroke="black" points="643.95,-216.99 647.45,-226.99 650.95,-216.99 643.95,-216.99"/>
</g>
<!-- NotificationService -->
<g id="node18" class="node">
<title>NotificationService</title>
<ellipse fill="#fdb462" stroke="black" cx="1332" cy="-180" rx="86.81" ry="18"/>
<text text-anchor="middle" x="1332" y="-175.8" font-family="Times,serif" font-size="14.00">NotificationService</text>
</g>
<!-- NotificationService&#45;&gt;NotificationModule -->
<g id="edge19" class="edge">
<title>NotificationService&#45;&gt;NotificationModule</title>
<path fill="none" stroke="black" d="M1304.97,-197.42C1304.97,-197.42 1304.97,-216.62 1304.97,-216.62"/>
<polygon fill="black" stroke="black" points="1301.47,-216.62 1304.97,-226.62 1308.47,-216.62 1301.47,-216.62"/>
</g>
<!-- DatabaseModule -->
<g id="node19" class="node">
<title>DatabaseModule</title>
<polygon fill="#8dd3c7" stroke="black" points="1773.35,-198 1770.35,-202 1749.35,-202 1746.35,-198 1662.65,-198 1662.65,-162 1773.35,-162 1773.35,-198"/>
<text text-anchor="middle" x="1718" y="-175.8" font-family="Times,serif" font-size="14.00">DatabaseModule</text>
</g>
<!-- DatabaseModule&#45;&gt;OrganizationModule -->
<g id="edge21" class="edge">
<title>DatabaseModule&#45;&gt;OrganizationModule</title>
<path fill="none" stroke="black" d="M1718,-198.11C1718,-217.34 1718,-245 1718,-245 1718,-245 1609.27,-245 1609.27,-245"/>
<polygon fill="black" stroke="black" points="1609.27,-241.5 1599.27,-245 1609.27,-248.5 1609.27,-241.5"/>
</g>
<!-- OrganizationService -->
<g id="node21" class="node">
<title>OrganizationService</title>
<ellipse fill="#fdb462" stroke="black" cx="1549" cy="-180" rx="90.31" ry="18"/>
<text text-anchor="middle" x="1549" y="-175.8" font-family="Times,serif" font-size="14.00">OrganizationService</text>
</g>
<!-- OrganizationService&#45;&gt;OrganizationModule -->
<g id="edge23" class="edge">
<title>OrganizationService&#45;&gt;OrganizationModule</title>
<path fill="none" stroke="black" d="M1566.16,-197.76C1566.16,-197.76 1566.16,-216.81 1566.16,-216.81"/>
<polygon fill="black" stroke="black" points="1562.66,-216.81 1566.16,-226.81 1569.66,-216.81 1562.66,-216.81"/>
</g>
<!-- PaymentService -->
<g id="node23" class="node">
<title>PaymentService</title>
<ellipse fill="#fdb462" stroke="black" cx="1887" cy="-180" rx="73.57" ry="18"/>
<text text-anchor="middle" x="1887" y="-175.8" font-family="Times,serif" font-size="14.00">PaymentService</text>
</g>
<!-- PaymentService&#45;&gt;PaymentModule -->
<g id="edge26" class="edge">
<title>PaymentService&#45;&gt;PaymentModule</title>
<path fill="none" stroke="black" d="M1863.24,-197.08C1863.24,-197.08 1863.24,-216.9 1863.24,-216.9"/>
<polygon fill="black" stroke="black" points="1859.74,-216.9 1863.24,-226.9 1866.74,-216.9 1859.74,-216.9"/>
</g>
<!-- PropertyService -->
<g id="node25" class="node">
<title>PropertyService</title>
<ellipse fill="#fdb462" stroke="black" cx="2074" cy="-180" rx="73.49" ry="18"/>
<text text-anchor="middle" x="2074" y="-175.8" font-family="Times,serif" font-size="14.00">PropertyService</text>
</g>
<!-- PropertyService&#45;&gt;PropertyModule -->
<g id="edge29" class="edge">
<title>PropertyService&#45;&gt;PropertyModule</title>
<path fill="none" stroke="black" d="M2050.82,-197.08C2050.82,-197.08 2050.82,-216.9 2050.82,-216.9"/>
<polygon fill="black" stroke="black" points="2047.32,-216.9 2050.82,-226.9 2054.32,-216.9 2047.32,-216.9"/>
</g>
<!-- UserService -->
<g id="node27" class="node">
<title>UserService</title>
<ellipse fill="#fdb462" stroke="black" cx="2245" cy="-180" rx="58.44" ry="18"/>
<text text-anchor="middle" x="2245" y="-175.8" font-family="Times,serif" font-size="14.00">UserService</text>
</g>
<!-- UserService&#45;&gt;UserModule -->
<g id="edge32" class="edge">
<title>UserService&#45;&gt;UserModule</title>
<path fill="none" stroke="black" d="M2225.88,-197.08C2225.88,-197.08 2225.88,-216.9 2225.88,-216.9"/>
<polygon fill="black" stroke="black" points="2222.38,-216.9 2225.88,-226.9 2229.38,-216.9 2222.38,-216.9"/>
</g>
</g>
</svg>
