<?xml version="1.0" encoding="UTF-8" standalone="no"?>
<!DOCTYPE svg PUBLIC "-//W3C//DTD SVG 1.1//EN"
 "http://www.w3.org/Graphics/SVG/1.1/DTD/svg11.dtd">
<!-- Generated by graphviz version 2.47.0 (20210316.0004)
 -->
<!-- Title: dependencies Pages: 1 -->
<svg width="513pt" height="211pt"
 viewBox="0.00 0.00 513.00 211.00" xmlns="http://www.w3.org/2000/svg" xmlns:xlink="http://www.w3.org/1999/xlink">
<g id="graph0" class="graph" transform="scale(1 1) rotate(0) translate(4 207)">
<title>dependencies</title>
<polygon fill="white" stroke="transparent" points="-4,4 -4,-207 509,-207 509,4 -4,4"/>
<text text-anchor="start" x="231.51" y="-42.4" font-family="Times-12" font-weight="bold" font-size="14.00">Legend</text>
<polygon fill="#ffffb3" stroke="transparent" points="18.5,-10 18.5,-30 38.5,-30 38.5,-10 18.5,-10"/>
<text text-anchor="start" x="42.13" y="-15.4" font-family="Times-12" font-size="14.00"> &#160;Declarations</text>
<polygon fill="#8dd3c7" stroke="transparent" points="131.5,-10 131.5,-30 151.5,-30 151.5,-10 131.5,-10"/>
<text text-anchor="start" x="155.23" y="-15.4" font-family="Times-12" font-size="14.00"> &#160;Module</text>
<polygon fill="#80b1d3" stroke="transparent" points="217.5,-10 217.5,-30 237.5,-30 237.5,-10 217.5,-10"/>
<text text-anchor="start" x="241.28" y="-15.4" font-family="Times-12" font-size="14.00"> &#160;Bootstrap</text>
<polygon fill="#fdb462" stroke="transparent" points="314.5,-10 314.5,-30 334.5,-30 334.5,-10 314.5,-10"/>
<text text-anchor="start" x="338.17" y="-15.4" font-family="Times-12" font-size="14.00"> &#160;Providers</text>
<polygon fill="#fb8072" stroke="transparent" points="410.5,-10 410.5,-30 430.5,-30 430.5,-10 410.5,-10"/>
<text text-anchor="start" x="434.23" y="-15.4" font-family="Times-12" font-size="14.00"> &#160;Exports</text>
<g id="clust1" class="cluster">
<title>cluster_UserModule</title>
<polygon fill="none" stroke="black" stroke-dasharray="1,5" points="8,-70 8,-195 497,-195 497,-70 8,-70"/>
</g>
<g id="clust6" class="cluster">
<title>cluster_UserModule_providers</title>
<polygon fill="none" stroke="black" points="357,-78 357,-130 489,-130 489,-78 357,-78"/>
</g>
<g id="clust3" class="cluster">
<title>cluster_UserModule_imports</title>
<polygon fill="none" stroke="black" points="16,-78 16,-130 349,-130 349,-78 16,-78"/>
</g>
<!-- CommonModule -->
<g id="node1" class="node">
<title>CommonModule</title>
<polygon fill="#8dd3c7" stroke="black" points="340.67,-122 337.67,-126 316.67,-126 313.67,-122 229.33,-122 229.33,-86 340.67,-86 340.67,-122"/>
<text text-anchor="middle" x="285" y="-99.8" font-family="Times,serif" font-size="14.00">CommonModule</text>
</g>
<!-- UserModule -->
<g id="node3" class="node">
<title>UserModule</title>
<polygon fill="#8dd3c7" stroke="black" points="327.98,-187 324.98,-191 303.98,-191 300.98,-187 242.02,-187 242.02,-151 327.98,-151 327.98,-187"/>
<text text-anchor="middle" x="285" y="-164.8" font-family="Times,serif" font-size="14.00">UserModule</text>
</g>
<!-- CommonModule&#45;&gt;UserModule -->
<g id="edge1" class="edge">
<title>CommonModule&#45;&gt;UserModule</title>
<path fill="none" stroke="black" d="M285,-122.11C285,-122.11 285,-140.99 285,-140.99"/>
<polygon fill="black" stroke="black" points="281.5,-140.99 285,-150.99 288.5,-140.99 281.5,-140.99"/>
</g>
<!-- GraphQLMicroserviceModule -->
<g id="node2" class="node">
<title>GraphQLMicroserviceModule</title>
<polygon fill="#8dd3c7" stroke="black" points="211.54,-122 208.54,-126 187.54,-126 184.54,-122 24.46,-122 24.46,-86 211.54,-86 211.54,-122"/>
<text text-anchor="middle" x="118" y="-99.8" font-family="Times,serif" font-size="14.00">GraphQLMicroserviceModule</text>
</g>
<!-- GraphQLMicroserviceModule&#45;&gt;UserModule -->
<g id="edge2" class="edge">
<title>GraphQLMicroserviceModule&#45;&gt;UserModule</title>
<path fill="none" stroke="black" d="M118,-122.11C118,-141.34 118,-169 118,-169 118,-169 231.99,-169 231.99,-169"/>
<polygon fill="black" stroke="black" points="231.99,-172.5 241.99,-169 231.99,-165.5 231.99,-172.5"/>
</g>
<!-- UserService -->
<g id="node4" class="node">
<title>UserService</title>
<ellipse fill="#fdb462" stroke="black" cx="423" cy="-104" rx="58.44" ry="18"/>
<text text-anchor="middle" x="423" y="-99.8" font-family="Times,serif" font-size="14.00">UserService</text>
</g>
<!-- UserService&#45;&gt;UserModule -->
<g id="edge3" class="edge">
<title>UserService&#45;&gt;UserModule</title>
<path fill="none" stroke="black" d="M423,-122.11C423,-141.34 423,-169 423,-169 423,-169 338.29,-169 338.29,-169"/>
<polygon fill="black" stroke="black" points="338.29,-165.5 328.29,-169 338.29,-172.5 338.29,-165.5"/>
</g>
</g>
</svg>
