<?xml version="1.0" encoding="UTF-8" standalone="no"?>
<!DOCTYPE svg PUBLIC "-//W3C//DTD SVG 1.1//EN"
 "http://www.w3.org/Graphics/SVG/1.1/DTD/svg11.dtd">
<!-- Generated by graphviz version 2.47.0 (20210316.0004)
 -->
<!-- Title: dependencies Pages: 1 -->
<svg width="874pt" height="211pt"
 viewBox="0.00 0.00 874.00 211.00" xmlns="http://www.w3.org/2000/svg" xmlns:xlink="http://www.w3.org/1999/xlink">
<g id="graph0" class="graph" transform="scale(1 1) rotate(0) translate(4 207)">
<title>dependencies</title>
<polygon fill="white" stroke="transparent" points="-4,4 -4,-207 870,-207 870,4 -4,4"/>
<text text-anchor="start" x="412.01" y="-42.4" font-family="Times-12" font-weight="bold" font-size="14.00">Legend</text>
<polygon fill="#ffffb3" stroke="transparent" points="199,-10 199,-30 219,-30 219,-10 199,-10"/>
<text text-anchor="start" x="222.63" y="-15.4" font-family="Times-12" font-size="14.00"> &#160;Declarations</text>
<polygon fill="#8dd3c7" stroke="transparent" points="312,-10 312,-30 332,-30 332,-10 312,-10"/>
<text text-anchor="start" x="335.73" y="-15.4" font-family="Times-12" font-size="14.00"> &#160;Module</text>
<polygon fill="#80b1d3" stroke="transparent" points="398,-10 398,-30 418,-30 418,-10 398,-10"/>
<text text-anchor="start" x="421.78" y="-15.4" font-family="Times-12" font-size="14.00"> &#160;Bootstrap</text>
<polygon fill="#fdb462" stroke="transparent" points="495,-10 495,-30 515,-30 515,-10 495,-10"/>
<text text-anchor="start" x="518.67" y="-15.4" font-family="Times-12" font-size="14.00"> &#160;Providers</text>
<polygon fill="#fb8072" stroke="transparent" points="591,-10 591,-30 611,-30 611,-10 591,-10"/>
<text text-anchor="start" x="614.73" y="-15.4" font-family="Times-12" font-size="14.00"> &#160;Exports</text>
<g id="clust1" class="cluster">
<title>cluster_UserModule</title>
<polygon fill="none" stroke="black" stroke-dasharray="1,5" points="8,-70 8,-195 858,-195 858,-70 8,-70"/>
</g>
<g id="clust3" class="cluster">
<title>cluster_UserModule_imports</title>
<polygon fill="none" stroke="black" points="156,-78 156,-130 850,-130 850,-78 156,-78"/>
</g>
<g id="clust6" class="cluster">
<title>cluster_UserModule_providers</title>
<polygon fill="none" stroke="black" points="16,-78 16,-130 148,-130 148,-78 16,-78"/>
</g>
<!-- ClientsModule -->
<g id="node1" class="node">
<title>ClientsModule</title>
<polygon fill="#8dd3c7" stroke="black" points="841.72,-122 838.72,-126 817.72,-126 814.72,-122 742.28,-122 742.28,-86 841.72,-86 841.72,-122"/>
<text text-anchor="middle" x="792" y="-99.8" font-family="Times,serif" font-size="14.00">ClientsModule</text>
</g>
<!-- UserModule -->
<g id="node6" class="node">
<title>UserModule</title>
<polygon fill="#8dd3c7" stroke="black" points="582.98,-187 579.98,-191 558.98,-191 555.98,-187 497.02,-187 497.02,-151 582.98,-151 582.98,-187"/>
<text text-anchor="middle" x="540" y="-164.8" font-family="Times,serif" font-size="14.00">UserModule</text>
</g>
<!-- ClientsModule&#45;&gt;UserModule -->
<g id="edge1" class="edge">
<title>ClientsModule&#45;&gt;UserModule</title>
<path fill="none" stroke="black" d="M792,-122.28C792,-143.32 792,-175 792,-175 792,-175 593.03,-175 593.03,-175"/>
<polygon fill="black" stroke="black" points="593.03,-171.5 583.03,-175 593.03,-178.5 593.03,-171.5"/>
</g>
<!-- CommonModule -->
<g id="node2" class="node">
<title>CommonModule</title>
<polygon fill="#8dd3c7" stroke="black" points="724.67,-122 721.67,-126 700.67,-126 697.67,-122 613.33,-122 613.33,-86 724.67,-86 724.67,-122"/>
<text text-anchor="middle" x="669" y="-99.8" font-family="Times,serif" font-size="14.00">CommonModule</text>
</g>
<!-- CommonModule&#45;&gt;UserModule -->
<g id="edge2" class="edge">
<title>CommonModule&#45;&gt;UserModule</title>
<path fill="none" stroke="black" d="M669,-122.02C669,-139.37 669,-163 669,-163 669,-163 593.31,-163 593.31,-163"/>
<polygon fill="black" stroke="black" points="593.31,-159.5 583.31,-163 593.31,-166.5 593.31,-159.5"/>
</g>
<!-- DatabaseModule -->
<g id="node3" class="node">
<title>DatabaseModule</title>
<polygon fill="#8dd3c7" stroke="black" points="595.35,-122 592.35,-126 571.35,-126 568.35,-122 484.65,-122 484.65,-86 595.35,-86 595.35,-122"/>
<text text-anchor="middle" x="540" y="-99.8" font-family="Times,serif" font-size="14.00">DatabaseModule</text>
</g>
<!-- DatabaseModule&#45;&gt;UserModule -->
<g id="edge3" class="edge">
<title>DatabaseModule&#45;&gt;UserModule</title>
<path fill="none" stroke="black" d="M525.67,-122.11C525.67,-122.11 525.67,-140.99 525.67,-140.99"/>
<polygon fill="black" stroke="black" points="522.17,-140.99 525.67,-150.99 529.17,-140.99 522.17,-140.99"/>
</g>
<!-- DatabaseModule&#45;&gt;UserModule -->
<g id="edge4" class="edge">
<title>DatabaseModule&#45;&gt;UserModule</title>
<path fill="none" stroke="black" d="M554.33,-122.11C554.33,-122.11 554.33,-140.99 554.33,-140.99"/>
<polygon fill="black" stroke="black" points="550.83,-140.99 554.33,-150.99 557.83,-140.99 550.83,-140.99"/>
</g>
<!-- GraphQLMicroserviceModule -->
<g id="node4" class="node">
<title>GraphQLMicroserviceModule</title>
<polygon fill="#8dd3c7" stroke="black" points="466.54,-122 463.54,-126 442.54,-126 439.54,-122 279.46,-122 279.46,-86 466.54,-86 466.54,-122"/>
<text text-anchor="middle" x="373" y="-99.8" font-family="Times,serif" font-size="14.00">GraphQLMicroserviceModule</text>
</g>
<!-- GraphQLMicroserviceModule&#45;&gt;UserModule -->
<g id="edge5" class="edge">
<title>GraphQLMicroserviceModule&#45;&gt;UserModule</title>
<path fill="none" stroke="black" d="M373,-122.03C373,-138.4 373,-160 373,-160 373,-160 486.99,-160 486.99,-160"/>
<polygon fill="black" stroke="black" points="486.99,-163.5 496.99,-160 486.99,-156.5 486.99,-163.5"/>
</g>
<!-- SeederModule -->
<g id="node5" class="node">
<title>SeederModule</title>
<polygon fill="#8dd3c7" stroke="black" points="261.64,-122 258.64,-126 237.64,-126 234.64,-122 164.36,-122 164.36,-86 261.64,-86 261.64,-122"/>
<text text-anchor="middle" x="213" y="-99.8" font-family="Times,serif" font-size="14.00">SeederModule</text>
</g>
<!-- SeederModule&#45;&gt;UserModule -->
<g id="edge6" class="edge">
<title>SeederModule&#45;&gt;UserModule</title>
<path fill="none" stroke="black" d="M213,-122.11C213,-141.34 213,-169 213,-169 213,-169 486.91,-169 486.91,-169"/>
<polygon fill="black" stroke="black" points="486.91,-172.5 496.91,-169 486.91,-165.5 486.91,-172.5"/>
</g>
<!-- UserService -->
<g id="node7" class="node">
<title>UserService</title>
<ellipse fill="#fdb462" stroke="black" cx="82" cy="-104" rx="58.44" ry="18"/>
<text text-anchor="middle" x="82" y="-99.8" font-family="Times,serif" font-size="14.00">UserService</text>
</g>
<!-- UserService&#45;&gt;UserModule -->
<g id="edge7" class="edge">
<title>UserService&#45;&gt;UserModule</title>
<path fill="none" stroke="black" d="M82,-122.29C82,-144.21 82,-178 82,-178 82,-178 486.91,-178 486.91,-178"/>
<polygon fill="black" stroke="black" points="486.91,-181.5 496.91,-178 486.91,-174.5 486.91,-181.5"/>
</g>
</g>
</svg>
