<?xml version="1.0" encoding="UTF-8" standalone="no"?>
<!DOCTYPE svg PUBLIC "-//W3C//DTD SVG 1.1//EN"
 "http://www.w3.org/Graphics/SVG/1.1/DTD/svg11.dtd">
<!-- Generated by graphviz version 2.47.0 (20210316.0004)
 -->
<!-- Title: dependencies Pages: 1 -->
<svg width="918pt" height="211pt"
 viewBox="0.00 0.00 918.00 211.00" xmlns="http://www.w3.org/2000/svg" xmlns:xlink="http://www.w3.org/1999/xlink">
<g id="graph0" class="graph" transform="scale(1 1) rotate(0) translate(4 207)">
<title>dependencies</title>
<polygon fill="white" stroke="transparent" points="-4,4 -4,-207 914,-207 914,4 -4,4"/>
<text text-anchor="start" x="434.01" y="-42.4" font-family="Times-12" font-weight="bold" font-size="14.00">Legend</text>
<polygon fill="#ffffb3" stroke="transparent" points="221,-10 221,-30 241,-30 241,-10 221,-10"/>
<text text-anchor="start" x="244.63" y="-15.4" font-family="Times-12" font-size="14.00"> &#160;Declarations</text>
<polygon fill="#8dd3c7" stroke="transparent" points="334,-10 334,-30 354,-30 354,-10 334,-10"/>
<text text-anchor="start" x="357.73" y="-15.4" font-family="Times-12" font-size="14.00"> &#160;Module</text>
<polygon fill="#80b1d3" stroke="transparent" points="420,-10 420,-30 440,-30 440,-10 420,-10"/>
<text text-anchor="start" x="443.78" y="-15.4" font-family="Times-12" font-size="14.00"> &#160;Bootstrap</text>
<polygon fill="#fdb462" stroke="transparent" points="517,-10 517,-30 537,-30 537,-10 517,-10"/>
<text text-anchor="start" x="540.67" y="-15.4" font-family="Times-12" font-size="14.00"> &#160;Providers</text>
<polygon fill="#fb8072" stroke="transparent" points="613,-10 613,-30 633,-30 633,-10 613,-10"/>
<text text-anchor="start" x="636.73" y="-15.4" font-family="Times-12" font-size="14.00"> &#160;Exports</text>
<g id="clust1" class="cluster">
<title>cluster_UserModule</title>
<polygon fill="none" stroke="black" stroke-dasharray="1,5" points="8,-70 8,-195 902,-195 902,-70 8,-70"/>
</g>
<g id="clust3" class="cluster">
<title>cluster_UserModule_imports</title>
<polygon fill="none" stroke="black" points="156,-78 156,-130 894,-130 894,-78 156,-78"/>
</g>
<g id="clust6" class="cluster">
<title>cluster_UserModule_providers</title>
<polygon fill="none" stroke="black" points="16,-78 16,-130 148,-130 148,-78 16,-78"/>
</g>
<!-- CommonModule -->
<g id="node1" class="node">
<title>CommonModule</title>
<polygon fill="#8dd3c7" stroke="black" points="885.67,-122 882.67,-126 861.67,-126 858.67,-122 774.33,-122 774.33,-86 885.67,-86 885.67,-122"/>
<text text-anchor="middle" x="830" y="-99.8" font-family="Times,serif" font-size="14.00">CommonModule</text>
</g>
<!-- UserModule -->
<g id="node6" class="node">
<title>UserModule</title>
<polygon fill="#8dd3c7" stroke="black" points="576.98,-187 573.98,-191 552.98,-191 549.98,-187 491.02,-187 491.02,-151 576.98,-151 576.98,-187"/>
<text text-anchor="middle" x="534" y="-164.8" font-family="Times,serif" font-size="14.00">UserModule</text>
</g>
<!-- CommonModule&#45;&gt;UserModule -->
<g id="edge1" class="edge">
<title>CommonModule&#45;&gt;UserModule</title>
<path fill="none" stroke="black" d="M830,-122.29C830,-144.21 830,-178 830,-178 830,-178 587.04,-178 587.04,-178"/>
<polygon fill="black" stroke="black" points="587.04,-174.5 577.04,-178 587.04,-181.5 587.04,-174.5"/>
</g>
<!-- DatabaseModule -->
<g id="node2" class="node">
<title>DatabaseModule</title>
<polygon fill="#8dd3c7" stroke="black" points="756.35,-122 753.35,-126 732.35,-126 729.35,-122 645.65,-122 645.65,-86 756.35,-86 756.35,-122"/>
<text text-anchor="middle" x="701" y="-99.8" font-family="Times,serif" font-size="14.00">DatabaseModule</text>
</g>
<!-- DatabaseModule&#45;&gt;UserModule -->
<g id="edge2" class="edge">
<title>DatabaseModule&#45;&gt;UserModule</title>
<path fill="none" stroke="black" d="M682.52,-122.03C682.52,-138.4 682.52,-160 682.52,-160 682.52,-160 587.36,-160 587.36,-160"/>
<polygon fill="black" stroke="black" points="587.36,-156.5 577.36,-160 587.36,-163.5 587.36,-156.5"/>
</g>
<!-- DatabaseModule&#45;&gt;UserModule -->
<g id="edge3" class="edge">
<title>DatabaseModule&#45;&gt;UserModule</title>
<path fill="none" stroke="black" d="M719.48,-122.11C719.48,-141.34 719.48,-169 719.48,-169 719.48,-169 587.02,-169 587.02,-169"/>
<polygon fill="black" stroke="black" points="587.02,-165.5 577.02,-169 587.02,-172.5 587.02,-165.5"/>
</g>
<!-- GraphQLMicroserviceModule -->
<g id="node3" class="node">
<title>GraphQLMicroserviceModule</title>
<polygon fill="#8dd3c7" stroke="black" points="627.54,-122 624.54,-126 603.54,-126 600.54,-122 440.46,-122 440.46,-86 627.54,-86 627.54,-122"/>
<text text-anchor="middle" x="534" y="-99.8" font-family="Times,serif" font-size="14.00">GraphQLMicroserviceModule</text>
</g>
<!-- GraphQLMicroserviceModule&#45;&gt;UserModule -->
<g id="edge4" class="edge">
<title>GraphQLMicroserviceModule&#45;&gt;UserModule</title>
<path fill="none" stroke="black" d="M534,-122.11C534,-122.11 534,-140.99 534,-140.99"/>
<polygon fill="black" stroke="black" points="530.5,-140.99 534,-150.99 537.5,-140.99 530.5,-140.99"/>
</g>
<!-- JwtAuthGuardModule -->
<g id="node4" class="node">
<title>JwtAuthGuardModule</title>
<polygon fill="#8dd3c7" stroke="black" points="421.97,-122 418.97,-126 397.97,-126 394.97,-122 280.03,-122 280.03,-86 421.97,-86 421.97,-122"/>
<text text-anchor="middle" x="351" y="-99.8" font-family="Times,serif" font-size="14.00">JwtAuthGuardModule</text>
</g>
<!-- JwtAuthGuardModule&#45;&gt;UserModule -->
<g id="edge5" class="edge">
<title>JwtAuthGuardModule&#45;&gt;UserModule</title>
<path fill="none" stroke="black" d="M351,-122.03C351,-138.4 351,-160 351,-160 351,-160 480.63,-160 480.63,-160"/>
<polygon fill="black" stroke="black" points="480.63,-163.5 490.63,-160 480.63,-156.5 480.63,-163.5"/>
</g>
<!-- SeederModule -->
<g id="node5" class="node">
<title>SeederModule</title>
<polygon fill="#8dd3c7" stroke="black" points="261.64,-122 258.64,-126 237.64,-126 234.64,-122 164.36,-122 164.36,-86 261.64,-86 261.64,-122"/>
<text text-anchor="middle" x="213" y="-99.8" font-family="Times,serif" font-size="14.00">SeederModule</text>
</g>
<!-- SeederModule&#45;&gt;UserModule -->
<g id="edge6" class="edge">
<title>SeederModule&#45;&gt;UserModule</title>
<path fill="none" stroke="black" d="M213,-122.11C213,-141.34 213,-169 213,-169 213,-169 480.71,-169 480.71,-169"/>
<polygon fill="black" stroke="black" points="480.71,-172.5 490.71,-169 480.71,-165.5 480.71,-172.5"/>
</g>
<!-- UserService -->
<g id="node7" class="node">
<title>UserService</title>
<ellipse fill="#fdb462" stroke="black" cx="82" cy="-104" rx="58.44" ry="18"/>
<text text-anchor="middle" x="82" y="-99.8" font-family="Times,serif" font-size="14.00">UserService</text>
</g>
<!-- UserService&#45;&gt;UserModule -->
<g id="edge7" class="edge">
<title>UserService&#45;&gt;UserModule</title>
<path fill="none" stroke="black" d="M82,-122.29C82,-144.21 82,-178 82,-178 82,-178 480.66,-178 480.66,-178"/>
<polygon fill="black" stroke="black" points="480.66,-181.5 490.66,-178 480.66,-174.5 480.66,-181.5"/>
</g>
</g>
</svg>
