<?xml version="1.0" encoding="UTF-8" standalone="no"?>
<!DOCTYPE svg PUBLIC "-//W3C//DTD SVG 1.1//EN"
 "http://www.w3.org/Graphics/SVG/1.1/DTD/svg11.dtd">
<!-- Generated by graphviz version 2.47.0 (20210316.0004)
 -->
<!-- Title: dependencies Pages: 1 -->
<svg width="757pt" height="211pt"
 viewBox="0.00 0.00 757.00 211.00" xmlns="http://www.w3.org/2000/svg" xmlns:xlink="http://www.w3.org/1999/xlink">
<g id="graph0" class="graph" transform="scale(1 1) rotate(0) translate(4 207)">
<title>dependencies</title>
<polygon fill="white" stroke="transparent" points="-4,4 -4,-207 753,-207 753,4 -4,4"/>
<text text-anchor="start" x="353.51" y="-42.4" font-family="Times-12" font-weight="bold" font-size="14.00">Legend</text>
<polygon fill="#ffffb3" stroke="transparent" points="140.5,-10 140.5,-30 160.5,-30 160.5,-10 140.5,-10"/>
<text text-anchor="start" x="164.13" y="-15.4" font-family="Times-12" font-size="14.00"> &#160;Declarations</text>
<polygon fill="#8dd3c7" stroke="transparent" points="253.5,-10 253.5,-30 273.5,-30 273.5,-10 253.5,-10"/>
<text text-anchor="start" x="277.23" y="-15.4" font-family="Times-12" font-size="14.00"> &#160;Module</text>
<polygon fill="#80b1d3" stroke="transparent" points="339.5,-10 339.5,-30 359.5,-30 359.5,-10 339.5,-10"/>
<text text-anchor="start" x="363.28" y="-15.4" font-family="Times-12" font-size="14.00"> &#160;Bootstrap</text>
<polygon fill="#fdb462" stroke="transparent" points="436.5,-10 436.5,-30 456.5,-30 456.5,-10 436.5,-10"/>
<text text-anchor="start" x="460.17" y="-15.4" font-family="Times-12" font-size="14.00"> &#160;Providers</text>
<polygon fill="#fb8072" stroke="transparent" points="532.5,-10 532.5,-30 552.5,-30 552.5,-10 532.5,-10"/>
<text text-anchor="start" x="556.23" y="-15.4" font-family="Times-12" font-size="14.00"> &#160;Exports</text>
<g id="clust1" class="cluster">
<title>cluster_UserModule</title>
<polygon fill="none" stroke="black" stroke-dasharray="1,5" points="8,-70 8,-195 741,-195 741,-70 8,-70"/>
</g>
<g id="clust6" class="cluster">
<title>cluster_UserModule_providers</title>
<polygon fill="none" stroke="black" points="601,-78 601,-130 733,-130 733,-78 601,-78"/>
</g>
<g id="clust3" class="cluster">
<title>cluster_UserModule_imports</title>
<polygon fill="none" stroke="black" points="16,-78 16,-130 593,-130 593,-78 16,-78"/>
</g>
<!-- CommonModule -->
<g id="node1" class="node">
<title>CommonModule</title>
<polygon fill="#8dd3c7" stroke="black" points="584.67,-122 581.67,-126 560.67,-126 557.67,-122 473.33,-122 473.33,-86 584.67,-86 584.67,-122"/>
<text text-anchor="middle" x="529" y="-99.8" font-family="Times,serif" font-size="14.00">CommonModule</text>
</g>
<!-- UserModule -->
<g id="node5" class="node">
<title>UserModule</title>
<polygon fill="#8dd3c7" stroke="black" points="442.98,-187 439.98,-191 418.98,-191 415.98,-187 357.02,-187 357.02,-151 442.98,-151 442.98,-187"/>
<text text-anchor="middle" x="400" y="-164.8" font-family="Times,serif" font-size="14.00">UserModule</text>
</g>
<!-- CommonModule&#45;&gt;UserModule -->
<g id="edge1" class="edge">
<title>CommonModule&#45;&gt;UserModule</title>
<path fill="none" stroke="black" d="M529,-122.02C529,-139.37 529,-163 529,-163 529,-163 453.31,-163 453.31,-163"/>
<polygon fill="black" stroke="black" points="453.31,-159.5 443.31,-163 453.31,-166.5 453.31,-159.5"/>
</g>
<!-- DatabaseModule -->
<g id="node2" class="node">
<title>DatabaseModule</title>
<polygon fill="#8dd3c7" stroke="black" points="455.35,-122 452.35,-126 431.35,-126 428.35,-122 344.65,-122 344.65,-86 455.35,-86 455.35,-122"/>
<text text-anchor="middle" x="400" y="-99.8" font-family="Times,serif" font-size="14.00">DatabaseModule</text>
</g>
<!-- DatabaseModule&#45;&gt;UserModule -->
<g id="edge2" class="edge">
<title>DatabaseModule&#45;&gt;UserModule</title>
<path fill="none" stroke="black" d="M414.33,-122.11C414.33,-122.11 414.33,-140.99 414.33,-140.99"/>
<polygon fill="black" stroke="black" points="410.83,-140.99 414.33,-150.99 417.83,-140.99 410.83,-140.99"/>
</g>
<!-- DatabaseModule&#45;&gt;UserModule -->
<g id="edge3" class="edge">
<title>DatabaseModule&#45;&gt;UserModule</title>
<path fill="none" stroke="black" d="M385.67,-122.11C385.67,-122.11 385.67,-140.99 385.67,-140.99"/>
<polygon fill="black" stroke="black" points="382.17,-140.99 385.67,-150.99 389.17,-140.99 382.17,-140.99"/>
</g>
<!-- GraphQLMicroserviceModule -->
<g id="node3" class="node">
<title>GraphQLMicroserviceModule</title>
<polygon fill="#8dd3c7" stroke="black" points="326.54,-122 323.54,-126 302.54,-126 299.54,-122 139.46,-122 139.46,-86 326.54,-86 326.54,-122"/>
<text text-anchor="middle" x="233" y="-99.8" font-family="Times,serif" font-size="14.00">GraphQLMicroserviceModule</text>
</g>
<!-- GraphQLMicroserviceModule&#45;&gt;UserModule -->
<g id="edge4" class="edge">
<title>GraphQLMicroserviceModule&#45;&gt;UserModule</title>
<path fill="none" stroke="black" d="M233,-122.02C233,-139.37 233,-163 233,-163 233,-163 346.99,-163 346.99,-163"/>
<polygon fill="black" stroke="black" points="346.99,-166.5 356.99,-163 346.99,-159.5 346.99,-166.5"/>
</g>
<!-- SeederModule -->
<g id="node4" class="node">
<title>SeederModule</title>
<polygon fill="#8dd3c7" stroke="black" points="121.64,-122 118.64,-126 97.64,-126 94.64,-122 24.36,-122 24.36,-86 121.64,-86 121.64,-122"/>
<text text-anchor="middle" x="73" y="-99.8" font-family="Times,serif" font-size="14.00">SeederModule</text>
</g>
<!-- SeederModule&#45;&gt;UserModule -->
<g id="edge5" class="edge">
<title>SeederModule&#45;&gt;UserModule</title>
<path fill="none" stroke="black" d="M73,-122.28C73,-143.32 73,-175 73,-175 73,-175 346.91,-175 346.91,-175"/>
<polygon fill="black" stroke="black" points="346.91,-178.5 356.91,-175 346.91,-171.5 346.91,-178.5"/>
</g>
<!-- UserService -->
<g id="node6" class="node">
<title>UserService</title>
<ellipse fill="#fdb462" stroke="black" cx="667" cy="-104" rx="58.44" ry="18"/>
<text text-anchor="middle" x="667" y="-99.8" font-family="Times,serif" font-size="14.00">UserService</text>
</g>
<!-- UserService&#45;&gt;UserModule -->
<g id="edge6" class="edge">
<title>UserService&#45;&gt;UserModule</title>
<path fill="none" stroke="black" d="M667,-122.28C667,-143.32 667,-175 667,-175 667,-175 453.19,-175 453.19,-175"/>
<polygon fill="black" stroke="black" points="453.19,-171.5 443.19,-175 453.19,-178.5 453.19,-171.5"/>
</g>
</g>
</svg>
