<?xml version="1.0" encoding="UTF-8" standalone="no"?>
<!DOCTYPE svg PUBLIC "-//W3C//DTD SVG 1.1//EN"
 "http://www.w3.org/Graphics/SVG/1.1/DTD/svg11.dtd">
<!-- Generated by graphviz version 2.47.0 (20210316.0004)
 -->
<!-- Title: dependencies Pages: 1 -->
<svg width="545pt" height="211pt"
 viewBox="0.00 0.00 545.00 211.00" xmlns="http://www.w3.org/2000/svg" xmlns:xlink="http://www.w3.org/1999/xlink">
<g id="graph0" class="graph" transform="scale(1 1) rotate(0) translate(4 207)">
<title>dependencies</title>
<polygon fill="white" stroke="transparent" points="-4,4 -4,-207 541,-207 541,4 -4,4"/>
<text text-anchor="start" x="247.51" y="-42.4" font-family="Times-12" font-weight="bold" font-size="14.00">Legend</text>
<polygon fill="#ffffb3" stroke="transparent" points="34.5,-10 34.5,-30 54.5,-30 54.5,-10 34.5,-10"/>
<text text-anchor="start" x="58.13" y="-15.4" font-family="Times-12" font-size="14.00"> &#160;Declarations</text>
<polygon fill="#8dd3c7" stroke="transparent" points="147.5,-10 147.5,-30 167.5,-30 167.5,-10 147.5,-10"/>
<text text-anchor="start" x="171.23" y="-15.4" font-family="Times-12" font-size="14.00"> &#160;Module</text>
<polygon fill="#80b1d3" stroke="transparent" points="233.5,-10 233.5,-30 253.5,-30 253.5,-10 233.5,-10"/>
<text text-anchor="start" x="257.28" y="-15.4" font-family="Times-12" font-size="14.00"> &#160;Bootstrap</text>
<polygon fill="#fdb462" stroke="transparent" points="330.5,-10 330.5,-30 350.5,-30 350.5,-10 330.5,-10"/>
<text text-anchor="start" x="354.17" y="-15.4" font-family="Times-12" font-size="14.00"> &#160;Providers</text>
<polygon fill="#fb8072" stroke="transparent" points="426.5,-10 426.5,-30 446.5,-30 446.5,-10 426.5,-10"/>
<text text-anchor="start" x="450.23" y="-15.4" font-family="Times-12" font-size="14.00"> &#160;Exports</text>
<g id="clust1" class="cluster">
<title>cluster_PaymentModule</title>
<polygon fill="none" stroke="black" stroke-dasharray="1,5" points="8,-70 8,-195 529,-195 529,-70 8,-70"/>
</g>
<g id="clust6" class="cluster">
<title>cluster_PaymentModule_providers</title>
<polygon fill="none" stroke="black" points="357,-78 357,-130 521,-130 521,-78 357,-78"/>
</g>
<g id="clust3" class="cluster">
<title>cluster_PaymentModule_imports</title>
<polygon fill="none" stroke="black" points="16,-78 16,-130 349,-130 349,-78 16,-78"/>
</g>
<!-- CommonModule -->
<g id="node1" class="node">
<title>CommonModule</title>
<polygon fill="#8dd3c7" stroke="black" points="340.67,-122 337.67,-126 316.67,-126 313.67,-122 229.33,-122 229.33,-86 340.67,-86 340.67,-122"/>
<text text-anchor="middle" x="285" y="-99.8" font-family="Times,serif" font-size="14.00">CommonModule</text>
</g>
<!-- PaymentModule -->
<g id="node3" class="node">
<title>PaymentModule</title>
<polygon fill="#8dd3c7" stroke="black" points="339.04,-187 336.04,-191 315.04,-191 312.04,-187 230.96,-187 230.96,-151 339.04,-151 339.04,-187"/>
<text text-anchor="middle" x="285" y="-164.8" font-family="Times,serif" font-size="14.00">PaymentModule</text>
</g>
<!-- CommonModule&#45;&gt;PaymentModule -->
<g id="edge1" class="edge">
<title>CommonModule&#45;&gt;PaymentModule</title>
<path fill="none" stroke="black" d="M285,-122.11C285,-122.11 285,-140.99 285,-140.99"/>
<polygon fill="black" stroke="black" points="281.5,-140.99 285,-150.99 288.5,-140.99 281.5,-140.99"/>
</g>
<!-- GraphQLMicroserviceModule -->
<g id="node2" class="node">
<title>GraphQLMicroserviceModule</title>
<polygon fill="#8dd3c7" stroke="black" points="211.54,-122 208.54,-126 187.54,-126 184.54,-122 24.46,-122 24.46,-86 211.54,-86 211.54,-122"/>
<text text-anchor="middle" x="118" y="-99.8" font-family="Times,serif" font-size="14.00">GraphQLMicroserviceModule</text>
</g>
<!-- GraphQLMicroserviceModule&#45;&gt;PaymentModule -->
<g id="edge2" class="edge">
<title>GraphQLMicroserviceModule&#45;&gt;PaymentModule</title>
<path fill="none" stroke="black" d="M118,-122.11C118,-141.34 118,-169 118,-169 118,-169 220.78,-169 220.78,-169"/>
<polygon fill="black" stroke="black" points="220.78,-172.5 230.78,-169 220.78,-165.5 220.78,-172.5"/>
</g>
<!-- PaymentService -->
<g id="node4" class="node">
<title>PaymentService</title>
<ellipse fill="#fdb462" stroke="black" cx="439" cy="-104" rx="73.57" ry="18"/>
<text text-anchor="middle" x="439" y="-99.8" font-family="Times,serif" font-size="14.00">PaymentService</text>
</g>
<!-- PaymentService&#45;&gt;PaymentModule -->
<g id="edge3" class="edge">
<title>PaymentService&#45;&gt;PaymentModule</title>
<path fill="none" stroke="black" d="M439,-122.11C439,-141.34 439,-169 439,-169 439,-169 349.29,-169 349.29,-169"/>
<polygon fill="black" stroke="black" points="349.29,-165.5 339.29,-169 349.29,-172.5 349.29,-165.5"/>
</g>
</g>
</svg>
