<?xml version="1.0" encoding="UTF-8" standalone="no"?>
<!DOCTYPE svg PUBLIC "-//W3C//DTD SVG 1.1//EN"
 "http://www.w3.org/Graphics/SVG/1.1/DTD/svg11.dtd">
<!-- Generated by graphviz version 2.47.0 (20210316.0004)
 -->
<!-- Title: dependencies Pages: 1 -->
<svg width="504pt" height="284pt"
 viewBox="0.00 0.00 504.00 284.00" xmlns="http://www.w3.org/2000/svg" xmlns:xlink="http://www.w3.org/1999/xlink">
<g id="graph0" class="graph" transform="scale(1 1) rotate(0) translate(4 280)">
<title>dependencies</title>
<polygon fill="white" stroke="transparent" points="-4,4 -4,-280 500,-280 500,4 -4,4"/>
<text text-anchor="start" x="227.01" y="-42.4" font-family="Times-12" font-weight="bold" font-size="14.00">Legend</text>
<polygon fill="#ffffb3" stroke="transparent" points="14,-10 14,-30 34,-30 34,-10 14,-10"/>
<text text-anchor="start" x="37.63" y="-15.4" font-family="Times-12" font-size="14.00"> &#160;Declarations</text>
<polygon fill="#8dd3c7" stroke="transparent" points="127,-10 127,-30 147,-30 147,-10 127,-10"/>
<text text-anchor="start" x="150.73" y="-15.4" font-family="Times-12" font-size="14.00"> &#160;Module</text>
<polygon fill="#80b1d3" stroke="transparent" points="213,-10 213,-30 233,-30 233,-10 213,-10"/>
<text text-anchor="start" x="236.78" y="-15.4" font-family="Times-12" font-size="14.00"> &#160;Bootstrap</text>
<polygon fill="#fdb462" stroke="transparent" points="310,-10 310,-30 330,-30 330,-10 310,-10"/>
<text text-anchor="start" x="333.67" y="-15.4" font-family="Times-12" font-size="14.00"> &#160;Providers</text>
<polygon fill="#fb8072" stroke="transparent" points="406,-10 406,-30 426,-30 426,-10 406,-10"/>
<text text-anchor="start" x="429.73" y="-15.4" font-family="Times-12" font-size="14.00"> &#160;Exports</text>
<g id="clust1" class="cluster">
<title>cluster_CommonModule</title>
<polygon fill="none" stroke="black" stroke-dasharray="1,5" points="73,-70 73,-268 423,-268 423,-70 73,-70"/>
</g>
<g id="clust4" class="cluster">
<title>cluster_CommonModule_exports</title>
<polygon fill="none" stroke="black" points="180,-208 180,-260 310,-260 310,-208 180,-208"/>
</g>
<g id="clust6" class="cluster">
<title>cluster_CommonModule_providers</title>
<polygon fill="none" stroke="black" points="247,-78 247,-130 415,-130 415,-78 247,-78"/>
</g>
<g id="clust3" class="cluster">
<title>cluster_CommonModule_imports</title>
<polygon fill="none" stroke="black" points="81,-78 81,-130 239,-130 239,-78 81,-78"/>
</g>
<!-- QushahConfigModule -->
<g id="node1" class="node">
<title>QushahConfigModule</title>
<polygon fill="#8dd3c7" stroke="black" points="230.7,-122 227.7,-126 206.7,-126 203.7,-122 89.3,-122 89.3,-86 230.7,-86 230.7,-122"/>
<text text-anchor="middle" x="160" y="-99.8" font-family="Times,serif" font-size="14.00">QushahConfigModule</text>
</g>
<!-- CommonModule -->
<g id="node2" class="node">
<title>CommonModule</title>
<polygon fill="#8dd3c7" stroke="black" points="300.67,-187 297.67,-191 276.67,-191 273.67,-187 189.33,-187 189.33,-151 300.67,-151 300.67,-187"/>
<text text-anchor="middle" x="245" y="-164.8" font-family="Times,serif" font-size="14.00">CommonModule</text>
</g>
<!-- QushahConfigModule&#45;&gt;CommonModule -->
<g id="edge1" class="edge">
<title>QushahConfigModule&#45;&gt;CommonModule</title>
<path fill="none" stroke="black" d="M209.88,-122.11C209.88,-122.11 209.88,-140.99 209.88,-140.99"/>
<polygon fill="black" stroke="black" points="206.38,-140.99 209.88,-150.99 213.38,-140.99 206.38,-140.99"/>
</g>
<!-- CommonService  -->
<g id="node3" class="node">
<title>CommonService </title>
<polygon fill="#fb8072" stroke="black" points="301.6,-252 188.4,-252 188.4,-216 301.6,-216 301.6,-252"/>
<text text-anchor="middle" x="245" y="-229.8" font-family="Times,serif" font-size="14.00">CommonService </text>
</g>
<!-- CommonModule&#45;&gt;CommonService  -->
<g id="edge2" class="edge">
<title>CommonModule&#45;&gt;CommonService </title>
<path fill="none" stroke="black" stroke-dasharray="5,2" d="M245,-187.11C245,-187.11 245,-205.99 245,-205.99"/>
<polygon fill="black" stroke="black" points="241.5,-205.99 245,-215.99 248.5,-205.99 241.5,-205.99"/>
</g>
<!-- CommonService -->
<g id="node4" class="node">
<title>CommonService</title>
<ellipse fill="#fdb462" stroke="black" cx="331" cy="-104" rx="75.88" ry="18"/>
<text text-anchor="middle" x="331" y="-99.8" font-family="Times,serif" font-size="14.00">CommonService</text>
</g>
<!-- CommonService&#45;&gt;CommonModule -->
<g id="edge3" class="edge">
<title>CommonService&#45;&gt;CommonModule</title>
<path fill="none" stroke="black" d="M277.95,-117.15C277.95,-117.15 277.95,-140.69 277.95,-140.69"/>
<polygon fill="black" stroke="black" points="274.45,-140.69 277.95,-150.69 281.45,-140.69 274.45,-140.69"/>
</g>
</g>
</svg>
