<?xml version="1.0" encoding="UTF-8" standalone="no"?>
<!DOCTYPE svg PUBLIC "-//W3C//DTD SVG 1.1//EN"
 "http://www.w3.org/Graphics/SVG/1.1/DTD/svg11.dtd">
<!-- Generated by graphviz version 2.47.0 (20210316.0004)
 -->
<!-- Title: dependencies Pages: 1 -->
<svg width="731pt" height="211pt"
 viewBox="0.00 0.00 731.00 211.00" xmlns="http://www.w3.org/2000/svg" xmlns:xlink="http://www.w3.org/1999/xlink">
<g id="graph0" class="graph" transform="scale(1 1) rotate(0) translate(4 207)">
<title>dependencies</title>
<polygon fill="white" stroke="transparent" points="-4,4 -4,-207 727,-207 727,4 -4,4"/>
<text text-anchor="start" x="340.51" y="-42.4" font-family="Times-12" font-weight="bold" font-size="14.00">Legend</text>
<polygon fill="#ffffb3" stroke="transparent" points="127.5,-10 127.5,-30 147.5,-30 147.5,-10 127.5,-10"/>
<text text-anchor="start" x="151.13" y="-15.4" font-family="Times-12" font-size="14.00"> &#160;Declarations</text>
<polygon fill="#8dd3c7" stroke="transparent" points="240.5,-10 240.5,-30 260.5,-30 260.5,-10 240.5,-10"/>
<text text-anchor="start" x="264.23" y="-15.4" font-family="Times-12" font-size="14.00"> &#160;Module</text>
<polygon fill="#80b1d3" stroke="transparent" points="326.5,-10 326.5,-30 346.5,-30 346.5,-10 326.5,-10"/>
<text text-anchor="start" x="350.28" y="-15.4" font-family="Times-12" font-size="14.00"> &#160;Bootstrap</text>
<polygon fill="#fdb462" stroke="transparent" points="423.5,-10 423.5,-30 443.5,-30 443.5,-10 423.5,-10"/>
<text text-anchor="start" x="447.17" y="-15.4" font-family="Times-12" font-size="14.00"> &#160;Providers</text>
<polygon fill="#fb8072" stroke="transparent" points="519.5,-10 519.5,-30 539.5,-30 539.5,-10 519.5,-10"/>
<text text-anchor="start" x="543.23" y="-15.4" font-family="Times-12" font-size="14.00"> &#160;Exports</text>
<g id="clust1" class="cluster">
<title>cluster_NotificationModule</title>
<polygon fill="none" stroke="black" stroke-dasharray="1,5" points="8,-70 8,-195 715,-195 715,-70 8,-70"/>
</g>
<g id="clust3" class="cluster">
<title>cluster_NotificationModule_imports</title>
<polygon fill="none" stroke="black" points="214,-78 214,-130 707,-130 707,-78 214,-78"/>
</g>
<g id="clust6" class="cluster">
<title>cluster_NotificationModule_providers</title>
<polygon fill="none" stroke="black" points="16,-78 16,-130 206,-130 206,-78 16,-78"/>
</g>
<!-- CommonModule -->
<g id="node1" class="node">
<title>CommonModule</title>
<polygon fill="#8dd3c7" stroke="black" points="698.67,-122 695.67,-126 674.67,-126 671.67,-122 587.33,-122 587.33,-86 698.67,-86 698.67,-122"/>
<text text-anchor="middle" x="643" y="-99.8" font-family="Times,serif" font-size="14.00">CommonModule</text>
</g>
<!-- NotificationModule -->
<g id="node4" class="node">
<title>NotificationModule</title>
<polygon fill="#8dd3c7" stroke="black" points="447.7,-187 444.7,-191 423.7,-191 420.7,-187 320.3,-187 320.3,-151 447.7,-151 447.7,-187"/>
<text text-anchor="middle" x="384" y="-164.8" font-family="Times,serif" font-size="14.00">NotificationModule</text>
</g>
<!-- CommonModule&#45;&gt;NotificationModule -->
<g id="edge1" class="edge">
<title>CommonModule&#45;&gt;NotificationModule</title>
<path fill="none" stroke="black" d="M643,-122.11C643,-141.34 643,-169 643,-169 643,-169 457.69,-169 457.69,-169"/>
<polygon fill="black" stroke="black" points="457.69,-165.5 447.69,-169 457.69,-172.5 457.69,-165.5"/>
</g>
<!-- GraphQLMicroserviceModule -->
<g id="node2" class="node">
<title>GraphQLMicroserviceModule</title>
<polygon fill="#8dd3c7" stroke="black" points="569.54,-122 566.54,-126 545.54,-126 542.54,-122 382.46,-122 382.46,-86 569.54,-86 569.54,-122"/>
<text text-anchor="middle" x="476" y="-99.8" font-family="Times,serif" font-size="14.00">GraphQLMicroserviceModule</text>
</g>
<!-- GraphQLMicroserviceModule&#45;&gt;NotificationModule -->
<g id="edge2" class="edge">
<title>GraphQLMicroserviceModule&#45;&gt;NotificationModule</title>
<path fill="none" stroke="black" d="M415.04,-122.11C415.04,-122.11 415.04,-140.99 415.04,-140.99"/>
<polygon fill="black" stroke="black" points="411.54,-140.99 415.04,-150.99 418.54,-140.99 411.54,-140.99"/>
</g>
<!-- JwtAuthGuardModule -->
<g id="node3" class="node">
<title>JwtAuthGuardModule</title>
<polygon fill="#8dd3c7" stroke="black" points="363.97,-122 360.97,-126 339.97,-126 336.97,-122 222.03,-122 222.03,-86 363.97,-86 363.97,-122"/>
<text text-anchor="middle" x="293" y="-99.8" font-family="Times,serif" font-size="14.00">JwtAuthGuardModule</text>
</g>
<!-- JwtAuthGuardModule&#45;&gt;NotificationModule -->
<g id="edge3" class="edge">
<title>JwtAuthGuardModule&#45;&gt;NotificationModule</title>
<path fill="none" stroke="black" d="M342.19,-122.11C342.19,-122.11 342.19,-140.99 342.19,-140.99"/>
<polygon fill="black" stroke="black" points="338.69,-140.99 342.19,-150.99 345.69,-140.99 338.69,-140.99"/>
</g>
<!-- NotificationService -->
<g id="node5" class="node">
<title>NotificationService</title>
<ellipse fill="#fdb462" stroke="black" cx="111" cy="-104" rx="86.81" ry="18"/>
<text text-anchor="middle" x="111" y="-99.8" font-family="Times,serif" font-size="14.00">NotificationService</text>
</g>
<!-- NotificationService&#45;&gt;NotificationModule -->
<g id="edge4" class="edge">
<title>NotificationService&#45;&gt;NotificationModule</title>
<path fill="none" stroke="black" d="M111,-122.11C111,-141.34 111,-169 111,-169 111,-169 310.34,-169 310.34,-169"/>
<polygon fill="black" stroke="black" points="310.34,-172.5 320.34,-169 310.34,-165.5 310.34,-172.5"/>
</g>
</g>
</svg>
