<?xml version="1.0" encoding="UTF-8" standalone="no"?>
<!DOCTYPE svg PUBLIC "-//W3C//DTD SVG 1.1//EN"
 "http://www.w3.org/Graphics/SVG/1.1/DTD/svg11.dtd">
<!-- Generated by graphviz version 2.47.0 (20210316.0004)
 -->
<!-- Title: dependencies Pages: 1 -->
<svg width="543pt" height="211pt"
 viewBox="0.00 0.00 543.00 211.00" xmlns="http://www.w3.org/2000/svg" xmlns:xlink="http://www.w3.org/1999/xlink">
<g id="graph0" class="graph" transform="scale(1 1) rotate(0) translate(4 207)">
<title>dependencies</title>
<polygon fill="white" stroke="transparent" points="-4,4 -4,-207 539,-207 539,4 -4,4"/>
<text text-anchor="start" x="246.51" y="-42.4" font-family="Times-12" font-weight="bold" font-size="14.00">Legend</text>
<polygon fill="#ffffb3" stroke="transparent" points="33.5,-10 33.5,-30 53.5,-30 53.5,-10 33.5,-10"/>
<text text-anchor="start" x="57.13" y="-15.4" font-family="Times-12" font-size="14.00"> &#160;Declarations</text>
<polygon fill="#8dd3c7" stroke="transparent" points="146.5,-10 146.5,-30 166.5,-30 166.5,-10 146.5,-10"/>
<text text-anchor="start" x="170.23" y="-15.4" font-family="Times-12" font-size="14.00"> &#160;Module</text>
<polygon fill="#80b1d3" stroke="transparent" points="232.5,-10 232.5,-30 252.5,-30 252.5,-10 232.5,-10"/>
<text text-anchor="start" x="256.28" y="-15.4" font-family="Times-12" font-size="14.00"> &#160;Bootstrap</text>
<polygon fill="#fdb462" stroke="transparent" points="329.5,-10 329.5,-30 349.5,-30 349.5,-10 329.5,-10"/>
<text text-anchor="start" x="353.17" y="-15.4" font-family="Times-12" font-size="14.00"> &#160;Providers</text>
<polygon fill="#fb8072" stroke="transparent" points="425.5,-10 425.5,-30 445.5,-30 445.5,-10 425.5,-10"/>
<text text-anchor="start" x="449.23" y="-15.4" font-family="Times-12" font-size="14.00"> &#160;Exports</text>
<g id="clust1" class="cluster">
<title>cluster_PropertyModule</title>
<polygon fill="none" stroke="black" stroke-dasharray="1,5" points="8,-70 8,-195 527,-195 527,-70 8,-70"/>
</g>
<g id="clust3" class="cluster">
<title>cluster_PropertyModule_imports</title>
<polygon fill="none" stroke="black" points="186,-78 186,-130 519,-130 519,-78 186,-78"/>
</g>
<g id="clust6" class="cluster">
<title>cluster_PropertyModule_providers</title>
<polygon fill="none" stroke="black" points="16,-78 16,-130 178,-130 178,-78 16,-78"/>
</g>
<!-- CommonModule -->
<g id="node1" class="node">
<title>CommonModule</title>
<polygon fill="#8dd3c7" stroke="black" points="510.67,-122 507.67,-126 486.67,-126 483.67,-122 399.33,-122 399.33,-86 510.67,-86 510.67,-122"/>
<text text-anchor="middle" x="455" y="-99.8" font-family="Times,serif" font-size="14.00">CommonModule</text>
</g>
<!-- PropertyModule -->
<g id="node3" class="node">
<title>PropertyModule</title>
<polygon fill="#8dd3c7" stroke="black" points="341.76,-187 338.76,-191 317.76,-191 314.76,-187 234.24,-187 234.24,-151 341.76,-151 341.76,-187"/>
<text text-anchor="middle" x="288" y="-164.8" font-family="Times,serif" font-size="14.00">PropertyModule</text>
</g>
<!-- CommonModule&#45;&gt;PropertyModule -->
<g id="edge1" class="edge">
<title>CommonModule&#45;&gt;PropertyModule</title>
<path fill="none" stroke="black" d="M455,-122.11C455,-141.34 455,-169 455,-169 455,-169 351.76,-169 351.76,-169"/>
<polygon fill="black" stroke="black" points="351.76,-165.5 341.76,-169 351.76,-172.5 351.76,-165.5"/>
</g>
<!-- GraphQLMicroserviceModule -->
<g id="node2" class="node">
<title>GraphQLMicroserviceModule</title>
<polygon fill="#8dd3c7" stroke="black" points="381.54,-122 378.54,-126 357.54,-126 354.54,-122 194.46,-122 194.46,-86 381.54,-86 381.54,-122"/>
<text text-anchor="middle" x="288" y="-99.8" font-family="Times,serif" font-size="14.00">GraphQLMicroserviceModule</text>
</g>
<!-- GraphQLMicroserviceModule&#45;&gt;PropertyModule -->
<g id="edge2" class="edge">
<title>GraphQLMicroserviceModule&#45;&gt;PropertyModule</title>
<path fill="none" stroke="black" d="M288,-122.11C288,-122.11 288,-140.99 288,-140.99"/>
<polygon fill="black" stroke="black" points="284.5,-140.99 288,-150.99 291.5,-140.99 284.5,-140.99"/>
</g>
<!-- PropertyService -->
<g id="node4" class="node">
<title>PropertyService</title>
<ellipse fill="#fdb462" stroke="black" cx="97" cy="-104" rx="73.49" ry="18"/>
<text text-anchor="middle" x="97" y="-99.8" font-family="Times,serif" font-size="14.00">PropertyService</text>
</g>
<!-- PropertyService&#45;&gt;PropertyModule -->
<g id="edge3" class="edge">
<title>PropertyService&#45;&gt;PropertyModule</title>
<path fill="none" stroke="black" d="M97,-122.11C97,-141.34 97,-169 97,-169 97,-169 224.03,-169 224.03,-169"/>
<polygon fill="black" stroke="black" points="224.03,-172.5 234.03,-169 224.03,-165.5 224.03,-172.5"/>
</g>
</g>
</svg>
