<?xml version="1.0" encoding="UTF-8" standalone="no"?>
<!DOCTYPE svg PUBLIC "-//W3C//DTD SVG 1.1//EN"
 "http://www.w3.org/Graphics/SVG/1.1/DTD/svg11.dtd">
<!-- Generated by graphviz version 2.47.0 (20210316.0004)
 -->
<!-- Title: dependencies Pages: 1 -->
<svg width="703pt" height="211pt"
 viewBox="0.00 0.00 703.00 211.00" xmlns="http://www.w3.org/2000/svg" xmlns:xlink="http://www.w3.org/1999/xlink">
<g id="graph0" class="graph" transform="scale(1 1) rotate(0) translate(4 207)">
<title>dependencies</title>
<polygon fill="white" stroke="transparent" points="-4,4 -4,-207 699,-207 699,4 -4,4"/>
<text text-anchor="start" x="326.51" y="-42.4" font-family="Times-12" font-weight="bold" font-size="14.00">Legend</text>
<polygon fill="#ffffb3" stroke="transparent" points="113.5,-10 113.5,-30 133.5,-30 133.5,-10 113.5,-10"/>
<text text-anchor="start" x="137.13" y="-15.4" font-family="Times-12" font-size="14.00"> &#160;Declarations</text>
<polygon fill="#8dd3c7" stroke="transparent" points="226.5,-10 226.5,-30 246.5,-30 246.5,-10 226.5,-10"/>
<text text-anchor="start" x="250.23" y="-15.4" font-family="Times-12" font-size="14.00"> &#160;Module</text>
<polygon fill="#80b1d3" stroke="transparent" points="312.5,-10 312.5,-30 332.5,-30 332.5,-10 312.5,-10"/>
<text text-anchor="start" x="336.28" y="-15.4" font-family="Times-12" font-size="14.00"> &#160;Bootstrap</text>
<polygon fill="#fdb462" stroke="transparent" points="409.5,-10 409.5,-30 429.5,-30 429.5,-10 409.5,-10"/>
<text text-anchor="start" x="433.17" y="-15.4" font-family="Times-12" font-size="14.00"> &#160;Providers</text>
<polygon fill="#fb8072" stroke="transparent" points="505.5,-10 505.5,-30 525.5,-30 525.5,-10 505.5,-10"/>
<text text-anchor="start" x="529.23" y="-15.4" font-family="Times-12" font-size="14.00"> &#160;Exports</text>
<g id="clust1" class="cluster">
<title>cluster_PropertyModule</title>
<polygon fill="none" stroke="black" stroke-dasharray="1,5" points="8,-70 8,-195 687,-195 687,-70 8,-70"/>
</g>
<g id="clust3" class="cluster">
<title>cluster_PropertyModule_imports</title>
<polygon fill="none" stroke="black" points="186,-78 186,-130 679,-130 679,-78 186,-78"/>
</g>
<g id="clust6" class="cluster">
<title>cluster_PropertyModule_providers</title>
<polygon fill="none" stroke="black" points="16,-78 16,-130 178,-130 178,-78 16,-78"/>
</g>
<!-- CommonModule -->
<g id="node1" class="node">
<title>CommonModule</title>
<polygon fill="#8dd3c7" stroke="black" points="670.67,-122 667.67,-126 646.67,-126 643.67,-122 559.33,-122 559.33,-86 670.67,-86 670.67,-122"/>
<text text-anchor="middle" x="615" y="-99.8" font-family="Times,serif" font-size="14.00">CommonModule</text>
</g>
<!-- PropertyModule -->
<g id="node4" class="node">
<title>PropertyModule</title>
<polygon fill="#8dd3c7" stroke="black" points="409.76,-187 406.76,-191 385.76,-191 382.76,-187 302.24,-187 302.24,-151 409.76,-151 409.76,-187"/>
<text text-anchor="middle" x="356" y="-164.8" font-family="Times,serif" font-size="14.00">PropertyModule</text>
</g>
<!-- CommonModule&#45;&gt;PropertyModule -->
<g id="edge1" class="edge">
<title>CommonModule&#45;&gt;PropertyModule</title>
<path fill="none" stroke="black" d="M615,-122.11C615,-141.34 615,-169 615,-169 615,-169 419.98,-169 419.98,-169"/>
<polygon fill="black" stroke="black" points="419.98,-165.5 409.98,-169 419.98,-172.5 419.98,-165.5"/>
</g>
<!-- GraphQLMicroserviceModule -->
<g id="node2" class="node">
<title>GraphQLMicroserviceModule</title>
<polygon fill="#8dd3c7" stroke="black" points="541.54,-122 538.54,-126 517.54,-126 514.54,-122 354.46,-122 354.46,-86 541.54,-86 541.54,-122"/>
<text text-anchor="middle" x="448" y="-99.8" font-family="Times,serif" font-size="14.00">GraphQLMicroserviceModule</text>
</g>
<!-- GraphQLMicroserviceModule&#45;&gt;PropertyModule -->
<g id="edge2" class="edge">
<title>GraphQLMicroserviceModule&#45;&gt;PropertyModule</title>
<path fill="none" stroke="black" d="M382.18,-122.11C382.18,-122.11 382.18,-140.99 382.18,-140.99"/>
<polygon fill="black" stroke="black" points="378.68,-140.99 382.18,-150.99 385.68,-140.99 378.68,-140.99"/>
</g>
<!-- JwtAuthGuardModule -->
<g id="node3" class="node">
<title>JwtAuthGuardModule</title>
<polygon fill="#8dd3c7" stroke="black" points="335.97,-122 332.97,-126 311.97,-126 308.97,-122 194.03,-122 194.03,-86 335.97,-86 335.97,-122"/>
<text text-anchor="middle" x="265" y="-99.8" font-family="Times,serif" font-size="14.00">JwtAuthGuardModule</text>
</g>
<!-- JwtAuthGuardModule&#45;&gt;PropertyModule -->
<g id="edge3" class="edge">
<title>JwtAuthGuardModule&#45;&gt;PropertyModule</title>
<path fill="none" stroke="black" d="M319.05,-122.11C319.05,-122.11 319.05,-140.99 319.05,-140.99"/>
<polygon fill="black" stroke="black" points="315.55,-140.99 319.05,-150.99 322.55,-140.99 315.55,-140.99"/>
</g>
<!-- PropertyService -->
<g id="node5" class="node">
<title>PropertyService</title>
<ellipse fill="#fdb462" stroke="black" cx="97" cy="-104" rx="73.49" ry="18"/>
<text text-anchor="middle" x="97" y="-99.8" font-family="Times,serif" font-size="14.00">PropertyService</text>
</g>
<!-- PropertyService&#45;&gt;PropertyModule -->
<g id="edge4" class="edge">
<title>PropertyService&#45;&gt;PropertyModule</title>
<path fill="none" stroke="black" d="M97,-122.11C97,-141.34 97,-169 97,-169 97,-169 292.02,-169 292.02,-169"/>
<polygon fill="black" stroke="black" points="292.02,-172.5 302.02,-169 292.02,-165.5 292.02,-172.5"/>
</g>
</g>
</svg>
