<?xml version="1.0" encoding="UTF-8" standalone="no"?>
<!DOCTYPE svg PUBLIC "-//W3C//DTD SVG 1.1//EN"
 "http://www.w3.org/Graphics/SVG/1.1/DTD/svg11.dtd">
<!-- Generated by graphviz version 2.47.0 (20210316.0004)
 -->
<!-- Title: dependencies Pages: 1 -->
<svg width="545pt" height="211pt"
 viewBox="0.00 0.00 545.00 211.00" xmlns="http://www.w3.org/2000/svg" xmlns:xlink="http://www.w3.org/1999/xlink">
<g id="graph0" class="graph" transform="scale(1 1) rotate(0) translate(4 207)">
<title>dependencies</title>
<polygon fill="white" stroke="transparent" points="-4,4 -4,-207 541,-207 541,4 -4,4"/>
<text text-anchor="start" x="247.51" y="-42.4" font-family="Times-12" font-weight="bold" font-size="14.00">Legend</text>
<polygon fill="#ffffb3" stroke="transparent" points="34.5,-10 34.5,-30 54.5,-30 54.5,-10 34.5,-10"/>
<text text-anchor="start" x="58.13" y="-15.4" font-family="Times-12" font-size="14.00"> &#160;Declarations</text>
<polygon fill="#8dd3c7" stroke="transparent" points="147.5,-10 147.5,-30 167.5,-30 167.5,-10 147.5,-10"/>
<text text-anchor="start" x="171.23" y="-15.4" font-family="Times-12" font-size="14.00"> &#160;Module</text>
<polygon fill="#80b1d3" stroke="transparent" points="233.5,-10 233.5,-30 253.5,-30 253.5,-10 233.5,-10"/>
<text text-anchor="start" x="257.28" y="-15.4" font-family="Times-12" font-size="14.00"> &#160;Bootstrap</text>
<polygon fill="#fdb462" stroke="transparent" points="330.5,-10 330.5,-30 350.5,-30 350.5,-10 330.5,-10"/>
<text text-anchor="start" x="354.17" y="-15.4" font-family="Times-12" font-size="14.00"> &#160;Providers</text>
<polygon fill="#fb8072" stroke="transparent" points="426.5,-10 426.5,-30 446.5,-30 446.5,-10 426.5,-10"/>
<text text-anchor="start" x="450.23" y="-15.4" font-family="Times-12" font-size="14.00"> &#160;Exports</text>
<g id="clust1" class="cluster">
<title>cluster_PaymentModule</title>
<polygon fill="none" stroke="black" stroke-dasharray="1,5" points="8,-70 8,-195 529,-195 529,-70 8,-70"/>
</g>
<g id="clust3" class="cluster">
<title>cluster_PaymentModule_imports</title>
<polygon fill="none" stroke="black" points="188,-78 188,-130 521,-130 521,-78 188,-78"/>
</g>
<g id="clust6" class="cluster">
<title>cluster_PaymentModule_providers</title>
<polygon fill="none" stroke="black" points="16,-78 16,-130 180,-130 180,-78 16,-78"/>
</g>
<!-- CommonModule -->
<g id="node1" class="node">
<title>CommonModule</title>
<polygon fill="#8dd3c7" stroke="black" points="512.67,-122 509.67,-126 488.67,-126 485.67,-122 401.33,-122 401.33,-86 512.67,-86 512.67,-122"/>
<text text-anchor="middle" x="457" y="-99.8" font-family="Times,serif" font-size="14.00">CommonModule</text>
</g>
<!-- PaymentModule -->
<g id="node3" class="node">
<title>PaymentModule</title>
<polygon fill="#8dd3c7" stroke="black" points="344.04,-187 341.04,-191 320.04,-191 317.04,-187 235.96,-187 235.96,-151 344.04,-151 344.04,-187"/>
<text text-anchor="middle" x="290" y="-164.8" font-family="Times,serif" font-size="14.00">PaymentModule</text>
</g>
<!-- CommonModule&#45;&gt;PaymentModule -->
<g id="edge1" class="edge">
<title>CommonModule&#45;&gt;PaymentModule</title>
<path fill="none" stroke="black" d="M457,-122.11C457,-141.34 457,-169 457,-169 457,-169 354.22,-169 354.22,-169"/>
<polygon fill="black" stroke="black" points="354.22,-165.5 344.22,-169 354.22,-172.5 354.22,-165.5"/>
</g>
<!-- GraphQLMicroserviceModule -->
<g id="node2" class="node">
<title>GraphQLMicroserviceModule</title>
<polygon fill="#8dd3c7" stroke="black" points="383.54,-122 380.54,-126 359.54,-126 356.54,-122 196.46,-122 196.46,-86 383.54,-86 383.54,-122"/>
<text text-anchor="middle" x="290" y="-99.8" font-family="Times,serif" font-size="14.00">GraphQLMicroserviceModule</text>
</g>
<!-- GraphQLMicroserviceModule&#45;&gt;PaymentModule -->
<g id="edge2" class="edge">
<title>GraphQLMicroserviceModule&#45;&gt;PaymentModule</title>
<path fill="none" stroke="black" d="M290,-122.11C290,-122.11 290,-140.99 290,-140.99"/>
<polygon fill="black" stroke="black" points="286.5,-140.99 290,-150.99 293.5,-140.99 286.5,-140.99"/>
</g>
<!-- PaymentService -->
<g id="node4" class="node">
<title>PaymentService</title>
<ellipse fill="#fdb462" stroke="black" cx="98" cy="-104" rx="73.57" ry="18"/>
<text text-anchor="middle" x="98" y="-99.8" font-family="Times,serif" font-size="14.00">PaymentService</text>
</g>
<!-- PaymentService&#45;&gt;PaymentModule -->
<g id="edge3" class="edge">
<title>PaymentService&#45;&gt;PaymentModule</title>
<path fill="none" stroke="black" d="M98,-122.11C98,-141.34 98,-169 98,-169 98,-169 225.75,-169 225.75,-169"/>
<polygon fill="black" stroke="black" points="225.75,-172.5 235.75,-169 225.75,-165.5 225.75,-172.5"/>
</g>
</g>
</svg>
