<?xml version="1.0" encoding="UTF-8" standalone="no"?>
<!DOCTYPE svg PUBLIC "-//W3C//DTD SVG 1.1//EN"
 "http://www.w3.org/Graphics/SVG/1.1/DTD/svg11.dtd">
<!-- Generated by graphviz version 2.47.0 (20210316.0004)
 -->
<!-- Title: dependencies Pages: 1 -->
<svg width="705pt" height="211pt"
 viewBox="0.00 0.00 705.00 211.00" xmlns="http://www.w3.org/2000/svg" xmlns:xlink="http://www.w3.org/1999/xlink">
<g id="graph0" class="graph" transform="scale(1 1) rotate(0) translate(4 207)">
<title>dependencies</title>
<polygon fill="white" stroke="transparent" points="-4,4 -4,-207 701,-207 701,4 -4,4"/>
<text text-anchor="start" x="327.51" y="-42.4" font-family="Times-12" font-weight="bold" font-size="14.00">Legend</text>
<polygon fill="#ffffb3" stroke="transparent" points="114.5,-10 114.5,-30 134.5,-30 134.5,-10 114.5,-10"/>
<text text-anchor="start" x="138.13" y="-15.4" font-family="Times-12" font-size="14.00"> &#160;Declarations</text>
<polygon fill="#8dd3c7" stroke="transparent" points="227.5,-10 227.5,-30 247.5,-30 247.5,-10 227.5,-10"/>
<text text-anchor="start" x="251.23" y="-15.4" font-family="Times-12" font-size="14.00"> &#160;Module</text>
<polygon fill="#80b1d3" stroke="transparent" points="313.5,-10 313.5,-30 333.5,-30 333.5,-10 313.5,-10"/>
<text text-anchor="start" x="337.28" y="-15.4" font-family="Times-12" font-size="14.00"> &#160;Bootstrap</text>
<polygon fill="#fdb462" stroke="transparent" points="410.5,-10 410.5,-30 430.5,-30 430.5,-10 410.5,-10"/>
<text text-anchor="start" x="434.17" y="-15.4" font-family="Times-12" font-size="14.00"> &#160;Providers</text>
<polygon fill="#fb8072" stroke="transparent" points="506.5,-10 506.5,-30 526.5,-30 526.5,-10 506.5,-10"/>
<text text-anchor="start" x="530.23" y="-15.4" font-family="Times-12" font-size="14.00"> &#160;Exports</text>
<g id="clust1" class="cluster">
<title>cluster_PaymentModule</title>
<polygon fill="none" stroke="black" stroke-dasharray="1,5" points="8,-70 8,-195 689,-195 689,-70 8,-70"/>
</g>
<g id="clust3" class="cluster">
<title>cluster_PaymentModule_imports</title>
<polygon fill="none" stroke="black" points="188,-78 188,-130 681,-130 681,-78 188,-78"/>
</g>
<g id="clust6" class="cluster">
<title>cluster_PaymentModule_providers</title>
<polygon fill="none" stroke="black" points="16,-78 16,-130 180,-130 180,-78 16,-78"/>
</g>
<!-- CommonModule -->
<g id="node1" class="node">
<title>CommonModule</title>
<polygon fill="#8dd3c7" stroke="black" points="672.67,-122 669.67,-126 648.67,-126 645.67,-122 561.33,-122 561.33,-86 672.67,-86 672.67,-122"/>
<text text-anchor="middle" x="617" y="-99.8" font-family="Times,serif" font-size="14.00">CommonModule</text>
</g>
<!-- PaymentModule -->
<g id="node4" class="node">
<title>PaymentModule</title>
<polygon fill="#8dd3c7" stroke="black" points="412.04,-187 409.04,-191 388.04,-191 385.04,-187 303.96,-187 303.96,-151 412.04,-151 412.04,-187"/>
<text text-anchor="middle" x="358" y="-164.8" font-family="Times,serif" font-size="14.00">PaymentModule</text>
</g>
<!-- CommonModule&#45;&gt;PaymentModule -->
<g id="edge1" class="edge">
<title>CommonModule&#45;&gt;PaymentModule</title>
<path fill="none" stroke="black" d="M617,-122.11C617,-141.34 617,-169 617,-169 617,-169 422.29,-169 422.29,-169"/>
<polygon fill="black" stroke="black" points="422.29,-165.5 412.29,-169 422.29,-172.5 422.29,-165.5"/>
</g>
<!-- GraphQLMicroserviceModule -->
<g id="node2" class="node">
<title>GraphQLMicroserviceModule</title>
<polygon fill="#8dd3c7" stroke="black" points="543.54,-122 540.54,-126 519.54,-126 516.54,-122 356.46,-122 356.46,-86 543.54,-86 543.54,-122"/>
<text text-anchor="middle" x="450" y="-99.8" font-family="Times,serif" font-size="14.00">GraphQLMicroserviceModule</text>
</g>
<!-- GraphQLMicroserviceModule&#45;&gt;PaymentModule -->
<g id="edge2" class="edge">
<title>GraphQLMicroserviceModule&#45;&gt;PaymentModule</title>
<path fill="none" stroke="black" d="M384.38,-122.11C384.38,-122.11 384.38,-140.99 384.38,-140.99"/>
<polygon fill="black" stroke="black" points="380.88,-140.99 384.38,-150.99 387.88,-140.99 380.88,-140.99"/>
</g>
<!-- JwtAuthGuardModule -->
<g id="node3" class="node">
<title>JwtAuthGuardModule</title>
<polygon fill="#8dd3c7" stroke="black" points="337.97,-122 334.97,-126 313.97,-126 310.97,-122 196.03,-122 196.03,-86 337.97,-86 337.97,-122"/>
<text text-anchor="middle" x="267" y="-99.8" font-family="Times,serif" font-size="14.00">JwtAuthGuardModule</text>
</g>
<!-- JwtAuthGuardModule&#45;&gt;PaymentModule -->
<g id="edge3" class="edge">
<title>JwtAuthGuardModule&#45;&gt;PaymentModule</title>
<path fill="none" stroke="black" d="M320.86,-122.11C320.86,-122.11 320.86,-140.99 320.86,-140.99"/>
<polygon fill="black" stroke="black" points="317.36,-140.99 320.86,-150.99 324.36,-140.99 317.36,-140.99"/>
</g>
<!-- PaymentService -->
<g id="node5" class="node">
<title>PaymentService</title>
<ellipse fill="#fdb462" stroke="black" cx="98" cy="-104" rx="73.57" ry="18"/>
<text text-anchor="middle" x="98" y="-99.8" font-family="Times,serif" font-size="14.00">PaymentService</text>
</g>
<!-- PaymentService&#45;&gt;PaymentModule -->
<g id="edge4" class="edge">
<title>PaymentService&#45;&gt;PaymentModule</title>
<path fill="none" stroke="black" d="M98,-122.11C98,-141.34 98,-169 98,-169 98,-169 293.81,-169 293.81,-169"/>
<polygon fill="black" stroke="black" points="293.81,-172.5 303.81,-169 293.81,-165.5 293.81,-172.5"/>
</g>
</g>
</svg>
