<?xml version="1.0" encoding="UTF-8" standalone="no"?>
<!DOCTYPE svg PUBLIC "-//W3C//DTD SVG 1.1//EN"
 "http://www.w3.org/Graphics/SVG/1.1/DTD/svg11.dtd">
<!-- Generated by graphviz version 2.47.0 (20210316.0004)
 -->
<!-- Title: dependencies Pages: 1 -->
<svg width="866pt" height="211pt"
 viewBox="0.00 0.00 866.00 211.00" xmlns="http://www.w3.org/2000/svg" xmlns:xlink="http://www.w3.org/1999/xlink">
<g id="graph0" class="graph" transform="scale(1 1) rotate(0) translate(4 207)">
<title>dependencies</title>
<polygon fill="white" stroke="transparent" points="-4,4 -4,-207 862,-207 862,4 -4,4"/>
<text text-anchor="start" x="408.01" y="-42.4" font-family="Times-12" font-weight="bold" font-size="14.00">Legend</text>
<polygon fill="#ffffb3" stroke="transparent" points="195,-10 195,-30 215,-30 215,-10 195,-10"/>
<text text-anchor="start" x="218.63" y="-15.4" font-family="Times-12" font-size="14.00"> &#160;Declarations</text>
<polygon fill="#8dd3c7" stroke="transparent" points="308,-10 308,-30 328,-30 328,-10 308,-10"/>
<text text-anchor="start" x="331.73" y="-15.4" font-family="Times-12" font-size="14.00"> &#160;Module</text>
<polygon fill="#80b1d3" stroke="transparent" points="394,-10 394,-30 414,-30 414,-10 394,-10"/>
<text text-anchor="start" x="417.78" y="-15.4" font-family="Times-12" font-size="14.00"> &#160;Bootstrap</text>
<polygon fill="#fdb462" stroke="transparent" points="491,-10 491,-30 511,-30 511,-10 491,-10"/>
<text text-anchor="start" x="514.67" y="-15.4" font-family="Times-12" font-size="14.00"> &#160;Providers</text>
<polygon fill="#fb8072" stroke="transparent" points="587,-10 587,-30 607,-30 607,-10 587,-10"/>
<text text-anchor="start" x="610.73" y="-15.4" font-family="Times-12" font-size="14.00"> &#160;Exports</text>
<g id="clust1" class="cluster">
<title>cluster_OrganizationModule</title>
<polygon fill="none" stroke="black" stroke-dasharray="1,5" points="8,-70 8,-195 850,-195 850,-70 8,-70"/>
</g>
<g id="clust3" class="cluster">
<title>cluster_OrganizationModule_imports</title>
<polygon fill="none" stroke="black" points="220,-78 220,-130 842,-130 842,-78 220,-78"/>
</g>
<g id="clust6" class="cluster">
<title>cluster_OrganizationModule_providers</title>
<polygon fill="none" stroke="black" points="16,-78 16,-130 212,-130 212,-78 16,-78"/>
</g>
<!-- CommonModule -->
<g id="node1" class="node">
<title>CommonModule</title>
<polygon fill="#8dd3c7" stroke="black" points="833.67,-122 830.67,-126 809.67,-126 806.67,-122 722.33,-122 722.33,-86 833.67,-86 833.67,-122"/>
<text text-anchor="middle" x="778" y="-99.8" font-family="Times,serif" font-size="14.00">CommonModule</text>
</g>
<!-- OrganizationModule -->
<g id="node5" class="node">
<title>OrganizationModule</title>
<polygon fill="#8dd3c7" stroke="black" points="631.13,-187 628.13,-191 607.13,-191 604.13,-187 498.87,-187 498.87,-151 631.13,-151 631.13,-187"/>
<text text-anchor="middle" x="565" y="-164.8" font-family="Times,serif" font-size="14.00">OrganizationModule</text>
</g>
<!-- CommonModule&#45;&gt;OrganizationModule -->
<g id="edge1" class="edge">
<title>CommonModule&#45;&gt;OrganizationModule</title>
<path fill="none" stroke="black" d="M778,-122.11C778,-141.34 778,-169 778,-169 778,-169 641.23,-169 641.23,-169"/>
<polygon fill="black" stroke="black" points="641.23,-165.5 631.23,-169 641.23,-172.5 641.23,-165.5"/>
</g>
<!-- DatabaseModule -->
<g id="node2" class="node">
<title>DatabaseModule</title>
<polygon fill="#8dd3c7" stroke="black" points="704.35,-122 701.35,-126 680.35,-126 677.35,-122 593.65,-122 593.65,-86 704.35,-86 704.35,-122"/>
<text text-anchor="middle" x="649" y="-99.8" font-family="Times,serif" font-size="14.00">DatabaseModule</text>
</g>
<!-- DatabaseModule&#45;&gt;OrganizationModule -->
<g id="edge2" class="edge">
<title>DatabaseModule&#45;&gt;OrganizationModule</title>
<path fill="none" stroke="black" d="M606.16,-122.11C606.16,-122.11 606.16,-140.99 606.16,-140.99"/>
<polygon fill="black" stroke="black" points="602.66,-140.99 606.16,-150.99 609.66,-140.99 602.66,-140.99"/>
</g>
<!-- DatabaseModule&#45;&gt;OrganizationModule -->
<g id="edge3" class="edge">
<title>DatabaseModule&#45;&gt;OrganizationModule</title>
<path fill="none" stroke="black" d="M618.74,-122.11C618.74,-122.11 618.74,-140.99 618.74,-140.99"/>
<polygon fill="black" stroke="black" points="615.24,-140.99 618.74,-150.99 622.24,-140.99 615.24,-140.99"/>
</g>
<!-- GraphQLMicroserviceModule -->
<g id="node3" class="node">
<title>GraphQLMicroserviceModule</title>
<polygon fill="#8dd3c7" stroke="black" points="575.54,-122 572.54,-126 551.54,-126 548.54,-122 388.46,-122 388.46,-86 575.54,-86 575.54,-122"/>
<text text-anchor="middle" x="482" y="-99.8" font-family="Times,serif" font-size="14.00">GraphQLMicroserviceModule</text>
</g>
<!-- GraphQLMicroserviceModule&#45;&gt;OrganizationModule -->
<g id="edge4" class="edge">
<title>GraphQLMicroserviceModule&#45;&gt;OrganizationModule</title>
<path fill="none" stroke="black" d="M537.1,-122.11C537.1,-122.11 537.1,-140.99 537.1,-140.99"/>
<polygon fill="black" stroke="black" points="533.6,-140.99 537.1,-150.99 540.6,-140.99 533.6,-140.99"/>
</g>
<!-- JwtAuthGuardModule -->
<g id="node4" class="node">
<title>JwtAuthGuardModule</title>
<polygon fill="#8dd3c7" stroke="black" points="369.97,-122 366.97,-126 345.97,-126 342.97,-122 228.03,-122 228.03,-86 369.97,-86 369.97,-122"/>
<text text-anchor="middle" x="299" y="-99.8" font-family="Times,serif" font-size="14.00">JwtAuthGuardModule</text>
</g>
<!-- JwtAuthGuardModule&#45;&gt;OrganizationModule -->
<g id="edge5" class="edge">
<title>JwtAuthGuardModule&#45;&gt;OrganizationModule</title>
<path fill="none" stroke="black" d="M299,-122.02C299,-139.37 299,-163 299,-163 299,-163 488.56,-163 488.56,-163"/>
<polygon fill="black" stroke="black" points="488.56,-166.5 498.56,-163 488.56,-159.5 488.56,-166.5"/>
</g>
<!-- OrganizationService -->
<g id="node6" class="node">
<title>OrganizationService</title>
<ellipse fill="#fdb462" stroke="black" cx="114" cy="-104" rx="90.31" ry="18"/>
<text text-anchor="middle" x="114" y="-99.8" font-family="Times,serif" font-size="14.00">OrganizationService</text>
</g>
<!-- OrganizationService&#45;&gt;OrganizationModule -->
<g id="edge6" class="edge">
<title>OrganizationService&#45;&gt;OrganizationModule</title>
<path fill="none" stroke="black" d="M114,-122.28C114,-143.32 114,-175 114,-175 114,-175 488.45,-175 488.45,-175"/>
<polygon fill="black" stroke="black" points="488.45,-178.5 498.45,-175 488.45,-171.5 488.45,-178.5"/>
</g>
</g>
</svg>
