<?xml version="1.0" encoding="UTF-8" standalone="no"?>
<!DOCTYPE svg PUBLIC "-//W3C//DTD SVG 1.1//EN"
 "http://www.w3.org/Graphics/SVG/1.1/DTD/svg11.dtd">
<!-- Generated by graphviz version 2.47.0 (20210316.0004)
 -->
<!-- Title: dependencies Pages: 1 -->
<svg width="706pt" height="211pt"
 viewBox="0.00 0.00 706.00 211.00" xmlns="http://www.w3.org/2000/svg" xmlns:xlink="http://www.w3.org/1999/xlink">
<g id="graph0" class="graph" transform="scale(1 1) rotate(0) translate(4 207)">
<title>dependencies</title>
<polygon fill="white" stroke="transparent" points="-4,4 -4,-207 702,-207 702,4 -4,4"/>
<text text-anchor="start" x="328.01" y="-42.4" font-family="Times-12" font-weight="bold" font-size="14.00">Legend</text>
<polygon fill="#ffffb3" stroke="transparent" points="115,-10 115,-30 135,-30 135,-10 115,-10"/>
<text text-anchor="start" x="138.63" y="-15.4" font-family="Times-12" font-size="14.00"> &#160;Declarations</text>
<polygon fill="#8dd3c7" stroke="transparent" points="228,-10 228,-30 248,-30 248,-10 228,-10"/>
<text text-anchor="start" x="251.73" y="-15.4" font-family="Times-12" font-size="14.00"> &#160;Module</text>
<polygon fill="#80b1d3" stroke="transparent" points="314,-10 314,-30 334,-30 334,-10 314,-10"/>
<text text-anchor="start" x="337.78" y="-15.4" font-family="Times-12" font-size="14.00"> &#160;Bootstrap</text>
<polygon fill="#fdb462" stroke="transparent" points="411,-10 411,-30 431,-30 431,-10 411,-10"/>
<text text-anchor="start" x="434.67" y="-15.4" font-family="Times-12" font-size="14.00"> &#160;Providers</text>
<polygon fill="#fb8072" stroke="transparent" points="507,-10 507,-30 527,-30 527,-10 507,-10"/>
<text text-anchor="start" x="530.73" y="-15.4" font-family="Times-12" font-size="14.00"> &#160;Exports</text>
<g id="clust1" class="cluster">
<title>cluster_OrganizationModule</title>
<polygon fill="none" stroke="black" stroke-dasharray="1,5" points="8,-70 8,-195 690,-195 690,-70 8,-70"/>
</g>
<g id="clust6" class="cluster">
<title>cluster_OrganizationModule_providers</title>
<polygon fill="none" stroke="black" points="486,-78 486,-130 682,-130 682,-78 486,-78"/>
</g>
<g id="clust3" class="cluster">
<title>cluster_OrganizationModule_imports</title>
<polygon fill="none" stroke="black" points="16,-78 16,-130 478,-130 478,-78 16,-78"/>
</g>
<!-- CommonModule -->
<g id="node1" class="node">
<title>CommonModule</title>
<polygon fill="#8dd3c7" stroke="black" points="469.67,-122 466.67,-126 445.67,-126 442.67,-122 358.33,-122 358.33,-86 469.67,-86 469.67,-122"/>
<text text-anchor="middle" x="414" y="-99.8" font-family="Times,serif" font-size="14.00">CommonModule</text>
</g>
<!-- OrganizationModule -->
<g id="node4" class="node">
<title>OrganizationModule</title>
<polygon fill="#8dd3c7" stroke="black" points="351.13,-187 348.13,-191 327.13,-191 324.13,-187 218.87,-187 218.87,-151 351.13,-151 351.13,-187"/>
<text text-anchor="middle" x="285" y="-164.8" font-family="Times,serif" font-size="14.00">OrganizationModule</text>
</g>
<!-- CommonModule&#45;&gt;OrganizationModule -->
<g id="edge1" class="edge">
<title>CommonModule&#45;&gt;OrganizationModule</title>
<path fill="none" stroke="black" d="M358.05,-104C350.82,-104 345.87,-104 345.87,-104 345.87,-104 345.87,-140.89 345.87,-140.89"/>
<polygon fill="black" stroke="black" points="342.37,-140.89 345.87,-150.89 349.37,-140.89 342.37,-140.89"/>
</g>
<!-- DatabaseModule -->
<g id="node2" class="node">
<title>DatabaseModule</title>
<polygon fill="#8dd3c7" stroke="black" points="340.35,-122 337.35,-126 316.35,-126 313.35,-122 229.65,-122 229.65,-86 340.35,-86 340.35,-122"/>
<text text-anchor="middle" x="285" y="-99.8" font-family="Times,serif" font-size="14.00">DatabaseModule</text>
</g>
<!-- DatabaseModule&#45;&gt;OrganizationModule -->
<g id="edge2" class="edge">
<title>DatabaseModule&#45;&gt;OrganizationModule</title>
<path fill="none" stroke="black" d="M303.48,-122.11C303.48,-122.11 303.48,-140.99 303.48,-140.99"/>
<polygon fill="black" stroke="black" points="299.98,-140.99 303.48,-150.99 306.98,-140.99 299.98,-140.99"/>
</g>
<!-- DatabaseModule&#45;&gt;OrganizationModule -->
<g id="edge3" class="edge">
<title>DatabaseModule&#45;&gt;OrganizationModule</title>
<path fill="none" stroke="black" d="M266.52,-122.11C266.52,-122.11 266.52,-140.99 266.52,-140.99"/>
<polygon fill="black" stroke="black" points="263.03,-140.99 266.52,-150.99 270.03,-140.99 263.03,-140.99"/>
</g>
<!-- GraphQLMicroserviceModule -->
<g id="node3" class="node">
<title>GraphQLMicroserviceModule</title>
<polygon fill="#8dd3c7" stroke="black" points="211.54,-122 208.54,-126 187.54,-126 184.54,-122 24.46,-122 24.46,-86 211.54,-86 211.54,-122"/>
<text text-anchor="middle" x="118" y="-99.8" font-family="Times,serif" font-size="14.00">GraphQLMicroserviceModule</text>
</g>
<!-- GraphQLMicroserviceModule&#45;&gt;OrganizationModule -->
<g id="edge4" class="edge">
<title>GraphQLMicroserviceModule&#45;&gt;OrganizationModule</title>
<path fill="none" stroke="black" d="M211.54,-104C219.23,-104 224.13,-104 224.13,-104 224.13,-104 224.13,-140.89 224.13,-140.89"/>
<polygon fill="black" stroke="black" points="220.63,-140.89 224.13,-150.89 227.63,-140.89 220.63,-140.89"/>
</g>
<!-- OrganizationService -->
<g id="node5" class="node">
<title>OrganizationService</title>
<ellipse fill="#fdb462" stroke="black" cx="584" cy="-104" rx="90.31" ry="18"/>
<text text-anchor="middle" x="584" y="-99.8" font-family="Times,serif" font-size="14.00">OrganizationService</text>
</g>
<!-- OrganizationService&#45;&gt;OrganizationModule -->
<g id="edge5" class="edge">
<title>OrganizationService&#45;&gt;OrganizationModule</title>
<path fill="none" stroke="black" d="M584,-122.11C584,-141.34 584,-169 584,-169 584,-169 361.36,-169 361.36,-169"/>
<polygon fill="black" stroke="black" points="361.36,-165.5 351.36,-169 361.36,-172.5 361.36,-165.5"/>
</g>
</g>
</svg>
