<?xml version="1.0" encoding="UTF-8" standalone="no"?>
<!DOCTYPE svg PUBLIC "-//W3C//DTD SVG 1.1//EN"
 "http://www.w3.org/Graphics/SVG/1.1/DTD/svg11.dtd">
<!-- Generated by graphviz version 2.47.0 (20210316.0004)
 -->
<!-- Title: dependencies Pages: 1 -->
<svg width="706pt" height="211pt"
 viewBox="0.00 0.00 706.00 211.00" xmlns="http://www.w3.org/2000/svg" xmlns:xlink="http://www.w3.org/1999/xlink">
<g id="graph0" class="graph" transform="scale(1 1) rotate(0) translate(4 207)">
<title>dependencies</title>
<polygon fill="white" stroke="transparent" points="-4,4 -4,-207 702,-207 702,4 -4,4"/>
<text text-anchor="start" x="328.01" y="-42.4" font-family="Times-12" font-weight="bold" font-size="14.00">Legend</text>
<polygon fill="#ffffb3" stroke="transparent" points="115,-10 115,-30 135,-30 135,-10 115,-10"/>
<text text-anchor="start" x="138.63" y="-15.4" font-family="Times-12" font-size="14.00"> &#160;Declarations</text>
<polygon fill="#8dd3c7" stroke="transparent" points="228,-10 228,-30 248,-30 248,-10 228,-10"/>
<text text-anchor="start" x="251.73" y="-15.4" font-family="Times-12" font-size="14.00"> &#160;Module</text>
<polygon fill="#80b1d3" stroke="transparent" points="314,-10 314,-30 334,-30 334,-10 314,-10"/>
<text text-anchor="start" x="337.78" y="-15.4" font-family="Times-12" font-size="14.00"> &#160;Bootstrap</text>
<polygon fill="#fdb462" stroke="transparent" points="411,-10 411,-30 431,-30 431,-10 411,-10"/>
<text text-anchor="start" x="434.67" y="-15.4" font-family="Times-12" font-size="14.00"> &#160;Providers</text>
<polygon fill="#fb8072" stroke="transparent" points="507,-10 507,-30 527,-30 527,-10 507,-10"/>
<text text-anchor="start" x="530.73" y="-15.4" font-family="Times-12" font-size="14.00"> &#160;Exports</text>
<g id="clust1" class="cluster">
<title>cluster_OrganizationModule</title>
<polygon fill="none" stroke="black" stroke-dasharray="1,5" points="8,-70 8,-195 690,-195 690,-70 8,-70"/>
</g>
<g id="clust3" class="cluster">
<title>cluster_OrganizationModule_imports</title>
<polygon fill="none" stroke="black" points="220,-78 220,-130 682,-130 682,-78 220,-78"/>
</g>
<g id="clust6" class="cluster">
<title>cluster_OrganizationModule_providers</title>
<polygon fill="none" stroke="black" points="16,-78 16,-130 212,-130 212,-78 16,-78"/>
</g>
<!-- CommonModule -->
<g id="node1" class="node">
<title>CommonModule</title>
<polygon fill="#8dd3c7" stroke="black" points="673.67,-122 670.67,-126 649.67,-126 646.67,-122 562.33,-122 562.33,-86 673.67,-86 673.67,-122"/>
<text text-anchor="middle" x="618" y="-99.8" font-family="Times,serif" font-size="14.00">CommonModule</text>
</g>
<!-- OrganizationModule -->
<g id="node4" class="node">
<title>OrganizationModule</title>
<polygon fill="#8dd3c7" stroke="black" points="471.13,-187 468.13,-191 447.13,-191 444.13,-187 338.87,-187 338.87,-151 471.13,-151 471.13,-187"/>
<text text-anchor="middle" x="405" y="-164.8" font-family="Times,serif" font-size="14.00">OrganizationModule</text>
</g>
<!-- CommonModule&#45;&gt;OrganizationModule -->
<g id="edge1" class="edge">
<title>CommonModule&#45;&gt;OrganizationModule</title>
<path fill="none" stroke="black" d="M618,-122.11C618,-141.34 618,-169 618,-169 618,-169 481.23,-169 481.23,-169"/>
<polygon fill="black" stroke="black" points="481.23,-165.5 471.23,-169 481.23,-172.5 481.23,-165.5"/>
</g>
<!-- DatabaseModule -->
<g id="node2" class="node">
<title>DatabaseModule</title>
<polygon fill="#8dd3c7" stroke="black" points="544.35,-122 541.35,-126 520.35,-126 517.35,-122 433.65,-122 433.65,-86 544.35,-86 544.35,-122"/>
<text text-anchor="middle" x="489" y="-99.8" font-family="Times,serif" font-size="14.00">DatabaseModule</text>
</g>
<!-- DatabaseModule&#45;&gt;OrganizationModule -->
<g id="edge2" class="edge">
<title>DatabaseModule&#45;&gt;OrganizationModule</title>
<path fill="none" stroke="black" d="M452.45,-122.11C452.45,-122.11 452.45,-140.99 452.45,-140.99"/>
<polygon fill="black" stroke="black" points="448.95,-140.99 452.45,-150.99 455.95,-140.99 448.95,-140.99"/>
</g>
<!-- GraphQLMicroserviceModule -->
<g id="node3" class="node">
<title>GraphQLMicroserviceModule</title>
<polygon fill="#8dd3c7" stroke="black" points="415.54,-122 412.54,-126 391.54,-126 388.54,-122 228.46,-122 228.46,-86 415.54,-86 415.54,-122"/>
<text text-anchor="middle" x="322" y="-99.8" font-family="Times,serif" font-size="14.00">GraphQLMicroserviceModule</text>
</g>
<!-- GraphQLMicroserviceModule&#45;&gt;OrganizationModule -->
<g id="edge3" class="edge">
<title>GraphQLMicroserviceModule&#45;&gt;OrganizationModule</title>
<path fill="none" stroke="black" d="M377.1,-122.11C377.1,-122.11 377.1,-140.99 377.1,-140.99"/>
<polygon fill="black" stroke="black" points="373.6,-140.99 377.1,-150.99 380.6,-140.99 373.6,-140.99"/>
</g>
<!-- OrganizationService -->
<g id="node5" class="node">
<title>OrganizationService</title>
<ellipse fill="#fdb462" stroke="black" cx="114" cy="-104" rx="90.31" ry="18"/>
<text text-anchor="middle" x="114" y="-99.8" font-family="Times,serif" font-size="14.00">OrganizationService</text>
</g>
<!-- OrganizationService&#45;&gt;OrganizationModule -->
<g id="edge4" class="edge">
<title>OrganizationService&#45;&gt;OrganizationModule</title>
<path fill="none" stroke="black" d="M114,-122.11C114,-141.34 114,-169 114,-169 114,-169 328.6,-169 328.6,-169"/>
<polygon fill="black" stroke="black" points="328.6,-172.5 338.6,-169 328.6,-165.5 328.6,-172.5"/>
</g>
</g>
</svg>
