<?xml version="1.0" encoding="UTF-8" standalone="no"?>
<!DOCTYPE svg PUBLIC "-//W3C//DTD SVG 1.1//EN"
 "http://www.w3.org/Graphics/SVG/1.1/DTD/svg11.dtd">
<!-- Generated by graphviz version 2.47.0 (20210316.0004)
 -->
<!-- Title: dependencies Pages: 1 -->
<svg width="577pt" height="211pt"
 viewBox="0.00 0.00 577.00 211.00" xmlns="http://www.w3.org/2000/svg" xmlns:xlink="http://www.w3.org/1999/xlink">
<g id="graph0" class="graph" transform="scale(1 1) rotate(0) translate(4 207)">
<title>dependencies</title>
<polygon fill="white" stroke="transparent" points="-4,4 -4,-207 573,-207 573,4 -4,4"/>
<text text-anchor="start" x="263.51" y="-42.4" font-family="Times-12" font-weight="bold" font-size="14.00">Legend</text>
<polygon fill="#ffffb3" stroke="transparent" points="50.5,-10 50.5,-30 70.5,-30 70.5,-10 50.5,-10"/>
<text text-anchor="start" x="74.13" y="-15.4" font-family="Times-12" font-size="14.00"> &#160;Declarations</text>
<polygon fill="#8dd3c7" stroke="transparent" points="163.5,-10 163.5,-30 183.5,-30 183.5,-10 163.5,-10"/>
<text text-anchor="start" x="187.23" y="-15.4" font-family="Times-12" font-size="14.00"> &#160;Module</text>
<polygon fill="#80b1d3" stroke="transparent" points="249.5,-10 249.5,-30 269.5,-30 269.5,-10 249.5,-10"/>
<text text-anchor="start" x="273.28" y="-15.4" font-family="Times-12" font-size="14.00"> &#160;Bootstrap</text>
<polygon fill="#fdb462" stroke="transparent" points="346.5,-10 346.5,-30 366.5,-30 366.5,-10 346.5,-10"/>
<text text-anchor="start" x="370.17" y="-15.4" font-family="Times-12" font-size="14.00"> &#160;Providers</text>
<polygon fill="#fb8072" stroke="transparent" points="442.5,-10 442.5,-30 462.5,-30 462.5,-10 442.5,-10"/>
<text text-anchor="start" x="466.23" y="-15.4" font-family="Times-12" font-size="14.00"> &#160;Exports</text>
<g id="clust1" class="cluster">
<title>cluster_OrganizationModule</title>
<polygon fill="none" stroke="black" stroke-dasharray="1,5" points="8,-70 8,-195 561,-195 561,-70 8,-70"/>
</g>
<g id="clust3" class="cluster">
<title>cluster_OrganizationModule_imports</title>
<polygon fill="none" stroke="black" points="220,-78 220,-130 553,-130 553,-78 220,-78"/>
</g>
<g id="clust6" class="cluster">
<title>cluster_OrganizationModule_providers</title>
<polygon fill="none" stroke="black" points="16,-78 16,-130 212,-130 212,-78 16,-78"/>
</g>
<!-- CommonModule -->
<g id="node1" class="node">
<title>CommonModule</title>
<polygon fill="#8dd3c7" stroke="black" points="544.67,-122 541.67,-126 520.67,-126 517.67,-122 433.33,-122 433.33,-86 544.67,-86 544.67,-122"/>
<text text-anchor="middle" x="489" y="-99.8" font-family="Times,serif" font-size="14.00">CommonModule</text>
</g>
<!-- OrganizationModule -->
<g id="node3" class="node">
<title>OrganizationModule</title>
<polygon fill="#8dd3c7" stroke="black" points="388.13,-187 385.13,-191 364.13,-191 361.13,-187 255.87,-187 255.87,-151 388.13,-151 388.13,-187"/>
<text text-anchor="middle" x="322" y="-164.8" font-family="Times,serif" font-size="14.00">OrganizationModule</text>
</g>
<!-- CommonModule&#45;&gt;OrganizationModule -->
<g id="edge1" class="edge">
<title>CommonModule&#45;&gt;OrganizationModule</title>
<path fill="none" stroke="black" d="M489,-122.11C489,-141.34 489,-169 489,-169 489,-169 398.48,-169 398.48,-169"/>
<polygon fill="black" stroke="black" points="398.48,-165.5 388.48,-169 398.48,-172.5 398.48,-165.5"/>
</g>
<!-- GraphQLMicroserviceModule -->
<g id="node2" class="node">
<title>GraphQLMicroserviceModule</title>
<polygon fill="#8dd3c7" stroke="black" points="415.54,-122 412.54,-126 391.54,-126 388.54,-122 228.46,-122 228.46,-86 415.54,-86 415.54,-122"/>
<text text-anchor="middle" x="322" y="-99.8" font-family="Times,serif" font-size="14.00">GraphQLMicroserviceModule</text>
</g>
<!-- GraphQLMicroserviceModule&#45;&gt;OrganizationModule -->
<g id="edge2" class="edge">
<title>GraphQLMicroserviceModule&#45;&gt;OrganizationModule</title>
<path fill="none" stroke="black" d="M322,-122.11C322,-122.11 322,-140.99 322,-140.99"/>
<polygon fill="black" stroke="black" points="318.5,-140.99 322,-150.99 325.5,-140.99 318.5,-140.99"/>
</g>
<!-- OrganizationService -->
<g id="node4" class="node">
<title>OrganizationService</title>
<ellipse fill="#fdb462" stroke="black" cx="114" cy="-104" rx="90.31" ry="18"/>
<text text-anchor="middle" x="114" y="-99.8" font-family="Times,serif" font-size="14.00">OrganizationService</text>
</g>
<!-- OrganizationService&#45;&gt;OrganizationModule -->
<g id="edge3" class="edge">
<title>OrganizationService&#45;&gt;OrganizationModule</title>
<path fill="none" stroke="black" d="M114,-122.11C114,-141.34 114,-169 114,-169 114,-169 245.62,-169 245.62,-169"/>
<polygon fill="black" stroke="black" points="245.62,-172.5 255.62,-169 245.62,-165.5 245.62,-172.5"/>
</g>
</g>
</svg>
