<?xml version="1.0" encoding="UTF-8" standalone="no"?>
<!DOCTYPE svg PUBLIC "-//W3C//DTD SVG 1.1//EN"
 "http://www.w3.org/Graphics/SVG/1.1/DTD/svg11.dtd">
<!-- Generated by graphviz version 2.47.0 (20210316.0004)
 -->
<!-- Title: dependencies Pages: 1 -->
<svg width="571pt" height="211pt"
 viewBox="0.00 0.00 571.00 211.00" xmlns="http://www.w3.org/2000/svg" xmlns:xlink="http://www.w3.org/1999/xlink">
<g id="graph0" class="graph" transform="scale(1 1) rotate(0) translate(4 207)">
<title>dependencies</title>
<polygon fill="white" stroke="transparent" points="-4,4 -4,-207 567,-207 567,4 -4,4"/>
<text text-anchor="start" x="260.51" y="-42.4" font-family="Times-12" font-weight="bold" font-size="14.00">Legend</text>
<polygon fill="#ffffb3" stroke="transparent" points="47.5,-10 47.5,-30 67.5,-30 67.5,-10 47.5,-10"/>
<text text-anchor="start" x="71.13" y="-15.4" font-family="Times-12" font-size="14.00"> &#160;Declarations</text>
<polygon fill="#8dd3c7" stroke="transparent" points="160.5,-10 160.5,-30 180.5,-30 180.5,-10 160.5,-10"/>
<text text-anchor="start" x="184.23" y="-15.4" font-family="Times-12" font-size="14.00"> &#160;Module</text>
<polygon fill="#80b1d3" stroke="transparent" points="246.5,-10 246.5,-30 266.5,-30 266.5,-10 246.5,-10"/>
<text text-anchor="start" x="270.28" y="-15.4" font-family="Times-12" font-size="14.00"> &#160;Bootstrap</text>
<polygon fill="#fdb462" stroke="transparent" points="343.5,-10 343.5,-30 363.5,-30 363.5,-10 343.5,-10"/>
<text text-anchor="start" x="367.17" y="-15.4" font-family="Times-12" font-size="14.00"> &#160;Providers</text>
<polygon fill="#fb8072" stroke="transparent" points="439.5,-10 439.5,-30 459.5,-30 459.5,-10 439.5,-10"/>
<text text-anchor="start" x="463.23" y="-15.4" font-family="Times-12" font-size="14.00"> &#160;Exports</text>
<g id="clust1" class="cluster">
<title>cluster_NotificationModule</title>
<polygon fill="none" stroke="black" stroke-dasharray="1,5" points="8,-70 8,-195 555,-195 555,-70 8,-70"/>
</g>
<g id="clust3" class="cluster">
<title>cluster_NotificationModule_imports</title>
<polygon fill="none" stroke="black" points="214,-78 214,-130 547,-130 547,-78 214,-78"/>
</g>
<g id="clust6" class="cluster">
<title>cluster_NotificationModule_providers</title>
<polygon fill="none" stroke="black" points="16,-78 16,-130 206,-130 206,-78 16,-78"/>
</g>
<!-- CommonModule -->
<g id="node1" class="node">
<title>CommonModule</title>
<polygon fill="#8dd3c7" stroke="black" points="538.67,-122 535.67,-126 514.67,-126 511.67,-122 427.33,-122 427.33,-86 538.67,-86 538.67,-122"/>
<text text-anchor="middle" x="483" y="-99.8" font-family="Times,serif" font-size="14.00">CommonModule</text>
</g>
<!-- NotificationModule -->
<g id="node3" class="node">
<title>NotificationModule</title>
<polygon fill="#8dd3c7" stroke="black" points="379.7,-187 376.7,-191 355.7,-191 352.7,-187 252.3,-187 252.3,-151 379.7,-151 379.7,-187"/>
<text text-anchor="middle" x="316" y="-164.8" font-family="Times,serif" font-size="14.00">NotificationModule</text>
</g>
<!-- CommonModule&#45;&gt;NotificationModule -->
<g id="edge1" class="edge">
<title>CommonModule&#45;&gt;NotificationModule</title>
<path fill="none" stroke="black" d="M483,-122.11C483,-141.34 483,-169 483,-169 483,-169 389.61,-169 389.61,-169"/>
<polygon fill="black" stroke="black" points="389.61,-165.5 379.61,-169 389.61,-172.5 389.61,-165.5"/>
</g>
<!-- GraphQLMicroserviceModule -->
<g id="node2" class="node">
<title>GraphQLMicroserviceModule</title>
<polygon fill="#8dd3c7" stroke="black" points="409.54,-122 406.54,-126 385.54,-126 382.54,-122 222.46,-122 222.46,-86 409.54,-86 409.54,-122"/>
<text text-anchor="middle" x="316" y="-99.8" font-family="Times,serif" font-size="14.00">GraphQLMicroserviceModule</text>
</g>
<!-- GraphQLMicroserviceModule&#45;&gt;NotificationModule -->
<g id="edge2" class="edge">
<title>GraphQLMicroserviceModule&#45;&gt;NotificationModule</title>
<path fill="none" stroke="black" d="M316,-122.11C316,-122.11 316,-140.99 316,-140.99"/>
<polygon fill="black" stroke="black" points="312.5,-140.99 316,-150.99 319.5,-140.99 312.5,-140.99"/>
</g>
<!-- NotificationService -->
<g id="node4" class="node">
<title>NotificationService</title>
<ellipse fill="#fdb462" stroke="black" cx="111" cy="-104" rx="86.81" ry="18"/>
<text text-anchor="middle" x="111" y="-99.8" font-family="Times,serif" font-size="14.00">NotificationService</text>
</g>
<!-- NotificationService&#45;&gt;NotificationModule -->
<g id="edge3" class="edge">
<title>NotificationService&#45;&gt;NotificationModule</title>
<path fill="none" stroke="black" d="M111,-122.11C111,-141.34 111,-169 111,-169 111,-169 242.26,-169 242.26,-169"/>
<polygon fill="black" stroke="black" points="242.26,-172.5 252.26,-169 242.26,-165.5 242.26,-172.5"/>
</g>
</g>
</svg>
