<?xml version="1.0" encoding="UTF-8" standalone="no"?>
<!DOCTYPE svg PUBLIC "-//W3C//DTD SVG 1.1//EN"
 "http://www.w3.org/Graphics/SVG/1.1/DTD/svg11.dtd">
<!-- Generated by graphviz version 2.47.0 (20210316.0004)
 -->
<!-- Title: dependencies Pages: 1 -->
<svg width="520pt" height="211pt"
 viewBox="0.00 0.00 520.00 211.00" xmlns="http://www.w3.org/2000/svg" xmlns:xlink="http://www.w3.org/1999/xlink">
<g id="graph0" class="graph" transform="scale(1 1) rotate(0) translate(4 207)">
<title>dependencies</title>
<polygon fill="white" stroke="transparent" points="-4,4 -4,-207 516,-207 516,4 -4,4"/>
<text text-anchor="start" x="235.01" y="-42.4" font-family="Times-12" font-weight="bold" font-size="14.00">Legend</text>
<polygon fill="#ffffb3" stroke="transparent" points="22,-10 22,-30 42,-30 42,-10 22,-10"/>
<text text-anchor="start" x="45.63" y="-15.4" font-family="Times-12" font-size="14.00"> &#160;Declarations</text>
<polygon fill="#8dd3c7" stroke="transparent" points="135,-10 135,-30 155,-30 155,-10 135,-10"/>
<text text-anchor="start" x="158.73" y="-15.4" font-family="Times-12" font-size="14.00"> &#160;Module</text>
<polygon fill="#80b1d3" stroke="transparent" points="221,-10 221,-30 241,-30 241,-10 221,-10"/>
<text text-anchor="start" x="244.78" y="-15.4" font-family="Times-12" font-size="14.00"> &#160;Bootstrap</text>
<polygon fill="#fdb462" stroke="transparent" points="318,-10 318,-30 338,-30 338,-10 318,-10"/>
<text text-anchor="start" x="341.67" y="-15.4" font-family="Times-12" font-size="14.00"> &#160;Providers</text>
<polygon fill="#fb8072" stroke="transparent" points="414,-10 414,-30 434,-30 434,-10 414,-10"/>
<text text-anchor="start" x="437.73" y="-15.4" font-family="Times-12" font-size="14.00"> &#160;Exports</text>
<g id="clust1" class="cluster">
<title>cluster_GatewayModule</title>
<polygon fill="none" stroke="black" stroke-dasharray="1,5" points="8,-70 8,-195 504,-195 504,-70 8,-70"/>
</g>
<g id="clust6" class="cluster">
<title>cluster_GatewayModule_providers</title>
<polygon fill="none" stroke="black" points="332,-78 332,-130 496,-130 496,-78 332,-78"/>
</g>
<g id="clust3" class="cluster">
<title>cluster_GatewayModule_imports</title>
<polygon fill="none" stroke="black" points="16,-78 16,-130 324,-130 324,-78 16,-78"/>
</g>
<!-- CommonModule -->
<g id="node1" class="node">
<title>CommonModule</title>
<polygon fill="#8dd3c7" stroke="black" points="315.67,-122 312.67,-126 291.67,-126 288.67,-122 204.33,-122 204.33,-86 315.67,-86 315.67,-122"/>
<text text-anchor="middle" x="260" y="-99.8" font-family="Times,serif" font-size="14.00">CommonModule</text>
</g>
<!-- GatewayModule -->
<g id="node3" class="node">
<title>GatewayModule</title>
<polygon fill="#8dd3c7" stroke="black" points="314.8,-187 311.8,-191 290.8,-191 287.8,-187 205.2,-187 205.2,-151 314.8,-151 314.8,-187"/>
<text text-anchor="middle" x="260" y="-164.8" font-family="Times,serif" font-size="14.00">GatewayModule</text>
</g>
<!-- CommonModule&#45;&gt;GatewayModule -->
<g id="edge1" class="edge">
<title>CommonModule&#45;&gt;GatewayModule</title>
<path fill="none" stroke="black" d="M260,-122.11C260,-122.11 260,-140.99 260,-140.99"/>
<polygon fill="black" stroke="black" points="256.5,-140.99 260,-150.99 263.5,-140.99 256.5,-140.99"/>
</g>
<!-- GraphQLGatewayModule -->
<g id="node2" class="node">
<title>GraphQLGatewayModule</title>
<polygon fill="#8dd3c7" stroke="black" points="186.44,-122 183.44,-126 162.44,-126 159.44,-122 23.56,-122 23.56,-86 186.44,-86 186.44,-122"/>
<text text-anchor="middle" x="105" y="-99.8" font-family="Times,serif" font-size="14.00">GraphQLGatewayModule</text>
</g>
<!-- GraphQLGatewayModule&#45;&gt;GatewayModule -->
<g id="edge2" class="edge">
<title>GraphQLGatewayModule&#45;&gt;GatewayModule</title>
<path fill="none" stroke="black" d="M105,-122.11C105,-141.34 105,-169 105,-169 105,-169 194.92,-169 194.92,-169"/>
<polygon fill="black" stroke="black" points="194.92,-172.5 204.92,-169 194.92,-165.5 194.92,-172.5"/>
</g>
<!-- GatewayService -->
<g id="node4" class="node">
<title>GatewayService</title>
<ellipse fill="#fdb462" stroke="black" cx="414" cy="-104" rx="74.11" ry="18"/>
<text text-anchor="middle" x="414" y="-99.8" font-family="Times,serif" font-size="14.00">GatewayService</text>
</g>
<!-- GatewayService&#45;&gt;GatewayModule -->
<g id="edge3" class="edge">
<title>GatewayService&#45;&gt;GatewayModule</title>
<path fill="none" stroke="black" d="M414,-122.11C414,-141.34 414,-169 414,-169 414,-169 324.73,-169 324.73,-169"/>
<polygon fill="black" stroke="black" points="324.73,-165.5 314.73,-169 324.73,-172.5 324.73,-165.5"/>
</g>
</g>
</svg>
