<?xml version="1.0" encoding="UTF-8" standalone="no"?>
<!DOCTYPE svg PUBLIC "-//W3C//DTD SVG 1.1//EN"
 "http://www.w3.org/Graphics/SVG/1.1/DTD/svg11.dtd">
<!-- Generated by graphviz version 2.47.0 (20210316.0004)
 -->
<!-- Title: dependencies Pages: 1 -->
<svg width="520pt" height="211pt"
 viewBox="0.00 0.00 520.00 211.00" xmlns="http://www.w3.org/2000/svg" xmlns:xlink="http://www.w3.org/1999/xlink">
<g id="graph0" class="graph" transform="scale(1 1) rotate(0) translate(4 207)">
<title>dependencies</title>
<polygon fill="white" stroke="transparent" points="-4,4 -4,-207 516,-207 516,4 -4,4"/>
<text text-anchor="start" x="235.01" y="-42.4" font-family="Times-12" font-weight="bold" font-size="14.00">Legend</text>
<polygon fill="#ffffb3" stroke="transparent" points="22,-10 22,-30 42,-30 42,-10 22,-10"/>
<text text-anchor="start" x="45.63" y="-15.4" font-family="Times-12" font-size="14.00"> &#160;Declarations</text>
<polygon fill="#8dd3c7" stroke="transparent" points="135,-10 135,-30 155,-30 155,-10 135,-10"/>
<text text-anchor="start" x="158.73" y="-15.4" font-family="Times-12" font-size="14.00"> &#160;Module</text>
<polygon fill="#80b1d3" stroke="transparent" points="221,-10 221,-30 241,-30 241,-10 221,-10"/>
<text text-anchor="start" x="244.78" y="-15.4" font-family="Times-12" font-size="14.00"> &#160;Bootstrap</text>
<polygon fill="#fdb462" stroke="transparent" points="318,-10 318,-30 338,-30 338,-10 318,-10"/>
<text text-anchor="start" x="341.67" y="-15.4" font-family="Times-12" font-size="14.00"> &#160;Providers</text>
<polygon fill="#fb8072" stroke="transparent" points="414,-10 414,-30 434,-30 434,-10 414,-10"/>
<text text-anchor="start" x="437.73" y="-15.4" font-family="Times-12" font-size="14.00"> &#160;Exports</text>
<g id="clust1" class="cluster">
<title>cluster_GatewayModule</title>
<polygon fill="none" stroke="black" stroke-dasharray="1,5" points="8,-70 8,-195 504,-195 504,-70 8,-70"/>
</g>
<g id="clust3" class="cluster">
<title>cluster_GatewayModule_imports</title>
<polygon fill="none" stroke="black" points="188,-78 188,-130 496,-130 496,-78 188,-78"/>
</g>
<g id="clust6" class="cluster">
<title>cluster_GatewayModule_providers</title>
<polygon fill="none" stroke="black" points="16,-78 16,-130 180,-130 180,-78 16,-78"/>
</g>
<!-- CommonModule -->
<g id="node1" class="node">
<title>CommonModule</title>
<polygon fill="#8dd3c7" stroke="black" points="487.67,-122 484.67,-126 463.67,-126 460.67,-122 376.33,-122 376.33,-86 487.67,-86 487.67,-122"/>
<text text-anchor="middle" x="432" y="-99.8" font-family="Times,serif" font-size="14.00">CommonModule</text>
</g>
<!-- GatewayModule -->
<g id="node3" class="node">
<title>GatewayModule</title>
<polygon fill="#8dd3c7" stroke="black" points="331.8,-187 328.8,-191 307.8,-191 304.8,-187 222.2,-187 222.2,-151 331.8,-151 331.8,-187"/>
<text text-anchor="middle" x="277" y="-164.8" font-family="Times,serif" font-size="14.00">GatewayModule</text>
</g>
<!-- CommonModule&#45;&gt;GatewayModule -->
<g id="edge1" class="edge">
<title>CommonModule&#45;&gt;GatewayModule</title>
<path fill="none" stroke="black" d="M432,-122.11C432,-141.34 432,-169 432,-169 432,-169 342.08,-169 342.08,-169"/>
<polygon fill="black" stroke="black" points="342.08,-165.5 332.08,-169 342.08,-172.5 342.08,-165.5"/>
</g>
<!-- GraphQLGatewayModule -->
<g id="node2" class="node">
<title>GraphQLGatewayModule</title>
<polygon fill="#8dd3c7" stroke="black" points="358.44,-122 355.44,-126 334.44,-126 331.44,-122 195.56,-122 195.56,-86 358.44,-86 358.44,-122"/>
<text text-anchor="middle" x="277" y="-99.8" font-family="Times,serif" font-size="14.00">GraphQLGatewayModule</text>
</g>
<!-- GraphQLGatewayModule&#45;&gt;GatewayModule -->
<g id="edge2" class="edge">
<title>GraphQLGatewayModule&#45;&gt;GatewayModule</title>
<path fill="none" stroke="black" d="M277,-122.11C277,-122.11 277,-140.99 277,-140.99"/>
<polygon fill="black" stroke="black" points="273.5,-140.99 277,-150.99 280.5,-140.99 273.5,-140.99"/>
</g>
<!-- GatewayService -->
<g id="node4" class="node">
<title>GatewayService</title>
<ellipse fill="#fdb462" stroke="black" cx="98" cy="-104" rx="74.11" ry="18"/>
<text text-anchor="middle" x="98" y="-99.8" font-family="Times,serif" font-size="14.00">GatewayService</text>
</g>
<!-- GatewayService&#45;&gt;GatewayModule -->
<g id="edge3" class="edge">
<title>GatewayService&#45;&gt;GatewayModule</title>
<path fill="none" stroke="black" d="M98,-122.11C98,-141.34 98,-169 98,-169 98,-169 212.32,-169 212.32,-169"/>
<polygon fill="black" stroke="black" points="212.32,-172.5 222.32,-169 212.32,-165.5 212.32,-172.5"/>
</g>
</g>
</svg>
