<?xml version="1.0" encoding="UTF-8" standalone="no"?>
<!DOCTYPE svg PUBLIC "-//W3C//DTD SVG 1.1//EN"
 "http://www.w3.org/Graphics/SVG/1.1/DTD/svg11.dtd">
<!-- Generated by graphviz version 2.47.0 (20210316.0004)
 -->
<!-- Title: dependencies Pages: 1 -->
<svg width="695pt" height="211pt"
 viewBox="0.00 0.00 695.00 211.00" xmlns="http://www.w3.org/2000/svg" xmlns:xlink="http://www.w3.org/1999/xlink">
<g id="graph0" class="graph" transform="scale(1 1) rotate(0) translate(4 207)">
<title>dependencies</title>
<polygon fill="white" stroke="transparent" points="-4,4 -4,-207 691,-207 691,4 -4,4"/>
<text text-anchor="start" x="322.51" y="-42.4" font-family="Times-12" font-weight="bold" font-size="14.00">Legend</text>
<polygon fill="#ffffb3" stroke="transparent" points="109.5,-10 109.5,-30 129.5,-30 129.5,-10 109.5,-10"/>
<text text-anchor="start" x="133.13" y="-15.4" font-family="Times-12" font-size="14.00"> &#160;Declarations</text>
<polygon fill="#8dd3c7" stroke="transparent" points="222.5,-10 222.5,-30 242.5,-30 242.5,-10 222.5,-10"/>
<text text-anchor="start" x="246.23" y="-15.4" font-family="Times-12" font-size="14.00"> &#160;Module</text>
<polygon fill="#80b1d3" stroke="transparent" points="308.5,-10 308.5,-30 328.5,-30 328.5,-10 308.5,-10"/>
<text text-anchor="start" x="332.28" y="-15.4" font-family="Times-12" font-size="14.00"> &#160;Bootstrap</text>
<polygon fill="#fdb462" stroke="transparent" points="405.5,-10 405.5,-30 425.5,-30 425.5,-10 405.5,-10"/>
<text text-anchor="start" x="429.17" y="-15.4" font-family="Times-12" font-size="14.00"> &#160;Providers</text>
<polygon fill="#fb8072" stroke="transparent" points="501.5,-10 501.5,-30 521.5,-30 521.5,-10 501.5,-10"/>
<text text-anchor="start" x="525.23" y="-15.4" font-family="Times-12" font-size="14.00"> &#160;Exports</text>
<g id="clust1" class="cluster">
<title>cluster_EscrowModule</title>
<polygon fill="none" stroke="black" stroke-dasharray="1,5" points="8,-70 8,-195 679,-195 679,-70 8,-70"/>
</g>
<g id="clust6" class="cluster">
<title>cluster_EscrowModule_providers</title>
<polygon fill="none" stroke="black" points="517,-78 517,-130 671,-130 671,-78 517,-78"/>
</g>
<g id="clust3" class="cluster">
<title>cluster_EscrowModule_imports</title>
<polygon fill="none" stroke="black" points="16,-78 16,-130 509,-130 509,-78 16,-78"/>
</g>
<!-- CommonModule -->
<g id="node1" class="node">
<title>CommonModule</title>
<polygon fill="#8dd3c7" stroke="black" points="500.67,-122 497.67,-126 476.67,-126 473.67,-122 389.33,-122 389.33,-86 500.67,-86 500.67,-122"/>
<text text-anchor="middle" x="445" y="-99.8" font-family="Times,serif" font-size="14.00">CommonModule</text>
</g>
<!-- EscrowModule -->
<g id="node4" class="node">
<title>EscrowModule</title>
<polygon fill="#8dd3c7" stroke="black" points="411.53,-187 408.53,-191 387.53,-191 384.53,-187 310.47,-187 310.47,-151 411.53,-151 411.53,-187"/>
<text text-anchor="middle" x="361" y="-164.8" font-family="Times,serif" font-size="14.00">EscrowModule</text>
</g>
<!-- CommonModule&#45;&gt;EscrowModule -->
<g id="edge1" class="edge">
<title>CommonModule&#45;&gt;EscrowModule</title>
<path fill="none" stroke="black" d="M400.47,-122.11C400.47,-122.11 400.47,-140.99 400.47,-140.99"/>
<polygon fill="black" stroke="black" points="396.97,-140.99 400.47,-150.99 403.97,-140.99 396.97,-140.99"/>
</g>
<!-- GraphQLMicroserviceModule -->
<g id="node2" class="node">
<title>GraphQLMicroserviceModule</title>
<polygon fill="#8dd3c7" stroke="black" points="371.54,-122 368.54,-126 347.54,-126 344.54,-122 184.46,-122 184.46,-86 371.54,-86 371.54,-122"/>
<text text-anchor="middle" x="278" y="-99.8" font-family="Times,serif" font-size="14.00">GraphQLMicroserviceModule</text>
</g>
<!-- GraphQLMicroserviceModule&#45;&gt;EscrowModule -->
<g id="edge2" class="edge">
<title>GraphQLMicroserviceModule&#45;&gt;EscrowModule</title>
<path fill="none" stroke="black" d="M340.88,-122.11C340.88,-122.11 340.88,-140.99 340.88,-140.99"/>
<polygon fill="black" stroke="black" points="337.38,-140.99 340.88,-150.99 344.38,-140.99 337.38,-140.99"/>
</g>
<!-- JwtAuthGuardModule -->
<g id="node3" class="node">
<title>JwtAuthGuardModule</title>
<polygon fill="#8dd3c7" stroke="black" points="165.97,-122 162.97,-126 141.97,-126 138.97,-122 24.03,-122 24.03,-86 165.97,-86 165.97,-122"/>
<text text-anchor="middle" x="95" y="-99.8" font-family="Times,serif" font-size="14.00">JwtAuthGuardModule</text>
</g>
<!-- JwtAuthGuardModule&#45;&gt;EscrowModule -->
<g id="edge3" class="edge">
<title>JwtAuthGuardModule&#45;&gt;EscrowModule</title>
<path fill="none" stroke="black" d="M95,-122.11C95,-141.34 95,-169 95,-169 95,-169 300.34,-169 300.34,-169"/>
<polygon fill="black" stroke="black" points="300.34,-172.5 310.34,-169 300.34,-165.5 300.34,-172.5"/>
</g>
<!-- EscrowService -->
<g id="node5" class="node">
<title>EscrowService</title>
<ellipse fill="#fdb462" stroke="black" cx="594" cy="-104" rx="68.9" ry="18"/>
<text text-anchor="middle" x="594" y="-99.8" font-family="Times,serif" font-size="14.00">EscrowService</text>
</g>
<!-- EscrowService&#45;&gt;EscrowModule -->
<g id="edge4" class="edge">
<title>EscrowService&#45;&gt;EscrowModule</title>
<path fill="none" stroke="black" d="M594,-122.11C594,-141.34 594,-169 594,-169 594,-169 421.56,-169 421.56,-169"/>
<polygon fill="black" stroke="black" points="421.56,-165.5 411.56,-169 421.56,-172.5 421.56,-165.5"/>
</g>
</g>
</svg>
