<?xml version="1.0" encoding="UTF-8" standalone="no"?>
<!DOCTYPE svg PUBLIC "-//W3C//DTD SVG 1.1//EN"
 "http://www.w3.org/Graphics/SVG/1.1/DTD/svg11.dtd">
<!-- Generated by graphviz version 2.47.0 (20210316.0004)
 -->
<!-- Title: dependencies Pages: 1 -->
<svg width="535pt" height="211pt"
 viewBox="0.00 0.00 535.00 211.00" xmlns="http://www.w3.org/2000/svg" xmlns:xlink="http://www.w3.org/1999/xlink">
<g id="graph0" class="graph" transform="scale(1 1) rotate(0) translate(4 207)">
<title>dependencies</title>
<polygon fill="white" stroke="transparent" points="-4,4 -4,-207 531,-207 531,4 -4,4"/>
<text text-anchor="start" x="242.51" y="-42.4" font-family="Times-12" font-weight="bold" font-size="14.00">Legend</text>
<polygon fill="#ffffb3" stroke="transparent" points="29.5,-10 29.5,-30 49.5,-30 49.5,-10 29.5,-10"/>
<text text-anchor="start" x="53.13" y="-15.4" font-family="Times-12" font-size="14.00"> &#160;Declarations</text>
<polygon fill="#8dd3c7" stroke="transparent" points="142.5,-10 142.5,-30 162.5,-30 162.5,-10 142.5,-10"/>
<text text-anchor="start" x="166.23" y="-15.4" font-family="Times-12" font-size="14.00"> &#160;Module</text>
<polygon fill="#80b1d3" stroke="transparent" points="228.5,-10 228.5,-30 248.5,-30 248.5,-10 228.5,-10"/>
<text text-anchor="start" x="252.28" y="-15.4" font-family="Times-12" font-size="14.00"> &#160;Bootstrap</text>
<polygon fill="#fdb462" stroke="transparent" points="325.5,-10 325.5,-30 345.5,-30 345.5,-10 325.5,-10"/>
<text text-anchor="start" x="349.17" y="-15.4" font-family="Times-12" font-size="14.00"> &#160;Providers</text>
<polygon fill="#fb8072" stroke="transparent" points="421.5,-10 421.5,-30 441.5,-30 441.5,-10 421.5,-10"/>
<text text-anchor="start" x="445.23" y="-15.4" font-family="Times-12" font-size="14.00"> &#160;Exports</text>
<g id="clust1" class="cluster">
<title>cluster_EscrowModule</title>
<polygon fill="none" stroke="black" stroke-dasharray="1,5" points="8,-70 8,-195 519,-195 519,-70 8,-70"/>
</g>
<g id="clust3" class="cluster">
<title>cluster_EscrowModule_imports</title>
<polygon fill="none" stroke="black" points="178,-78 178,-130 511,-130 511,-78 178,-78"/>
</g>
<g id="clust6" class="cluster">
<title>cluster_EscrowModule_providers</title>
<polygon fill="none" stroke="black" points="16,-78 16,-130 170,-130 170,-78 16,-78"/>
</g>
<!-- CommonModule -->
<g id="node1" class="node">
<title>CommonModule</title>
<polygon fill="#8dd3c7" stroke="black" points="502.67,-122 499.67,-126 478.67,-126 475.67,-122 391.33,-122 391.33,-86 502.67,-86 502.67,-122"/>
<text text-anchor="middle" x="447" y="-99.8" font-family="Times,serif" font-size="14.00">CommonModule</text>
</g>
<!-- EscrowModule -->
<g id="node3" class="node">
<title>EscrowModule</title>
<polygon fill="#8dd3c7" stroke="black" points="330.53,-187 327.53,-191 306.53,-191 303.53,-187 229.47,-187 229.47,-151 330.53,-151 330.53,-187"/>
<text text-anchor="middle" x="280" y="-164.8" font-family="Times,serif" font-size="14.00">EscrowModule</text>
</g>
<!-- CommonModule&#45;&gt;EscrowModule -->
<g id="edge1" class="edge">
<title>CommonModule&#45;&gt;EscrowModule</title>
<path fill="none" stroke="black" d="M447,-122.11C447,-141.34 447,-169 447,-169 447,-169 340.56,-169 340.56,-169"/>
<polygon fill="black" stroke="black" points="340.56,-165.5 330.56,-169 340.56,-172.5 340.56,-165.5"/>
</g>
<!-- GraphQLMicroserviceModule -->
<g id="node2" class="node">
<title>GraphQLMicroserviceModule</title>
<polygon fill="#8dd3c7" stroke="black" points="373.54,-122 370.54,-126 349.54,-126 346.54,-122 186.46,-122 186.46,-86 373.54,-86 373.54,-122"/>
<text text-anchor="middle" x="280" y="-99.8" font-family="Times,serif" font-size="14.00">GraphQLMicroserviceModule</text>
</g>
<!-- GraphQLMicroserviceModule&#45;&gt;EscrowModule -->
<g id="edge2" class="edge">
<title>GraphQLMicroserviceModule&#45;&gt;EscrowModule</title>
<path fill="none" stroke="black" d="M280,-122.11C280,-122.11 280,-140.99 280,-140.99"/>
<polygon fill="black" stroke="black" points="276.5,-140.99 280,-150.99 283.5,-140.99 276.5,-140.99"/>
</g>
<!-- EscrowService -->
<g id="node4" class="node">
<title>EscrowService</title>
<ellipse fill="#fdb462" stroke="black" cx="93" cy="-104" rx="68.9" ry="18"/>
<text text-anchor="middle" x="93" y="-99.8" font-family="Times,serif" font-size="14.00">EscrowService</text>
</g>
<!-- EscrowService&#45;&gt;EscrowModule -->
<g id="edge3" class="edge">
<title>EscrowService&#45;&gt;EscrowModule</title>
<path fill="none" stroke="black" d="M93,-122.11C93,-141.34 93,-169 93,-169 93,-169 219.4,-169 219.4,-169"/>
<polygon fill="black" stroke="black" points="219.4,-172.5 229.4,-169 219.4,-165.5 219.4,-172.5"/>
</g>
</g>
</svg>
