<?xml version="1.0" encoding="UTF-8" standalone="no"?>
<!DOCTYPE svg PUBLIC "-//W3C//DTD SVG 1.1//EN"
 "http://www.w3.org/Graphics/SVG/1.1/DTD/svg11.dtd">
<!-- Generated by graphviz version 2.47.0 (20210316.0004)
 -->
<!-- Title: dependencies Pages: 1 -->
<svg width="527pt" height="211pt"
 viewBox="0.00 0.00 527.00 211.00" xmlns="http://www.w3.org/2000/svg" xmlns:xlink="http://www.w3.org/1999/xlink">
<g id="graph0" class="graph" transform="scale(1 1) rotate(0) translate(4 207)">
<title>dependencies</title>
<polygon fill="white" stroke="transparent" points="-4,4 -4,-207 523,-207 523,4 -4,4"/>
<text text-anchor="start" x="238.51" y="-42.4" font-family="Times-12" font-weight="bold" font-size="14.00">Legend</text>
<polygon fill="#ffffb3" stroke="transparent" points="25.5,-10 25.5,-30 45.5,-30 45.5,-10 25.5,-10"/>
<text text-anchor="start" x="49.13" y="-15.4" font-family="Times-12" font-size="14.00"> &#160;Declarations</text>
<polygon fill="#8dd3c7" stroke="transparent" points="138.5,-10 138.5,-30 158.5,-30 158.5,-10 138.5,-10"/>
<text text-anchor="start" x="162.23" y="-15.4" font-family="Times-12" font-size="14.00"> &#160;Module</text>
<polygon fill="#80b1d3" stroke="transparent" points="224.5,-10 224.5,-30 244.5,-30 244.5,-10 224.5,-10"/>
<text text-anchor="start" x="248.28" y="-15.4" font-family="Times-12" font-size="14.00"> &#160;Bootstrap</text>
<polygon fill="#fdb462" stroke="transparent" points="321.5,-10 321.5,-30 341.5,-30 341.5,-10 321.5,-10"/>
<text text-anchor="start" x="345.17" y="-15.4" font-family="Times-12" font-size="14.00"> &#160;Providers</text>
<polygon fill="#fb8072" stroke="transparent" points="417.5,-10 417.5,-30 437.5,-30 437.5,-10 417.5,-10"/>
<text text-anchor="start" x="441.23" y="-15.4" font-family="Times-12" font-size="14.00"> &#160;Exports</text>
<g id="clust1" class="cluster">
<title>cluster_MediaModule</title>
<polygon fill="none" stroke="black" stroke-dasharray="1,5" points="8,-70 8,-195 511,-195 511,-70 8,-70"/>
</g>
<g id="clust3" class="cluster">
<title>cluster_MediaModule_imports</title>
<polygon fill="none" stroke="black" points="170,-78 170,-130 503,-130 503,-78 170,-78"/>
</g>
<g id="clust6" class="cluster">
<title>cluster_MediaModule_providers</title>
<polygon fill="none" stroke="black" points="16,-78 16,-130 162,-130 162,-78 16,-78"/>
</g>
<!-- CommonModule -->
<g id="node1" class="node">
<title>CommonModule</title>
<polygon fill="#8dd3c7" stroke="black" points="494.67,-122 491.67,-126 470.67,-126 467.67,-122 383.33,-122 383.33,-86 494.67,-86 494.67,-122"/>
<text text-anchor="middle" x="439" y="-99.8" font-family="Times,serif" font-size="14.00">CommonModule</text>
</g>
<!-- MediaModule -->
<g id="node3" class="node">
<title>MediaModule</title>
<polygon fill="#8dd3c7" stroke="black" points="319.81,-187 316.81,-191 295.81,-191 292.81,-187 224.19,-187 224.19,-151 319.81,-151 319.81,-187"/>
<text text-anchor="middle" x="272" y="-164.8" font-family="Times,serif" font-size="14.00">MediaModule</text>
</g>
<!-- CommonModule&#45;&gt;MediaModule -->
<g id="edge1" class="edge">
<title>CommonModule&#45;&gt;MediaModule</title>
<path fill="none" stroke="black" d="M439,-122.11C439,-141.34 439,-169 439,-169 439,-169 329.86,-169 329.86,-169"/>
<polygon fill="black" stroke="black" points="329.86,-165.5 319.86,-169 329.86,-172.5 329.86,-165.5"/>
</g>
<!-- GraphQLMicroserviceModule -->
<g id="node2" class="node">
<title>GraphQLMicroserviceModule</title>
<polygon fill="#8dd3c7" stroke="black" points="365.54,-122 362.54,-126 341.54,-126 338.54,-122 178.46,-122 178.46,-86 365.54,-86 365.54,-122"/>
<text text-anchor="middle" x="272" y="-99.8" font-family="Times,serif" font-size="14.00">GraphQLMicroserviceModule</text>
</g>
<!-- GraphQLMicroserviceModule&#45;&gt;MediaModule -->
<g id="edge2" class="edge">
<title>GraphQLMicroserviceModule&#45;&gt;MediaModule</title>
<path fill="none" stroke="black" d="M272,-122.11C272,-122.11 272,-140.99 272,-140.99"/>
<polygon fill="black" stroke="black" points="268.5,-140.99 272,-150.99 275.5,-140.99 268.5,-140.99"/>
</g>
<!-- MediaService -->
<g id="node4" class="node">
<title>MediaService</title>
<ellipse fill="#fdb462" stroke="black" cx="89" cy="-104" rx="64.82" ry="18"/>
<text text-anchor="middle" x="89" y="-99.8" font-family="Times,serif" font-size="14.00">MediaService</text>
</g>
<!-- MediaService&#45;&gt;MediaModule -->
<g id="edge3" class="edge">
<title>MediaService&#45;&gt;MediaModule</title>
<path fill="none" stroke="black" d="M89,-122.11C89,-141.34 89,-169 89,-169 89,-169 213.92,-169 213.92,-169"/>
<polygon fill="black" stroke="black" points="213.92,-172.5 223.92,-169 213.92,-165.5 213.92,-172.5"/>
</g>
</g>
</svg>
