<?xml version="1.0" encoding="UTF-8" standalone="no"?>
<!DOCTYPE svg PUBLIC "-//W3C//DTD SVG 1.1//EN"
 "http://www.w3.org/Graphics/SVG/1.1/DTD/svg11.dtd">
<!-- Generated by graphviz version 2.47.0 (20210316.0004)
 -->
<!-- Title: dependencies Pages: 1 -->
<svg width="687pt" height="211pt"
 viewBox="0.00 0.00 687.00 211.00" xmlns="http://www.w3.org/2000/svg" xmlns:xlink="http://www.w3.org/1999/xlink">
<g id="graph0" class="graph" transform="scale(1 1) rotate(0) translate(4 207)">
<title>dependencies</title>
<polygon fill="white" stroke="transparent" points="-4,4 -4,-207 683,-207 683,4 -4,4"/>
<text text-anchor="start" x="318.51" y="-42.4" font-family="Times-12" font-weight="bold" font-size="14.00">Legend</text>
<polygon fill="#ffffb3" stroke="transparent" points="105.5,-10 105.5,-30 125.5,-30 125.5,-10 105.5,-10"/>
<text text-anchor="start" x="129.13" y="-15.4" font-family="Times-12" font-size="14.00"> &#160;Declarations</text>
<polygon fill="#8dd3c7" stroke="transparent" points="218.5,-10 218.5,-30 238.5,-30 238.5,-10 218.5,-10"/>
<text text-anchor="start" x="242.23" y="-15.4" font-family="Times-12" font-size="14.00"> &#160;Module</text>
<polygon fill="#80b1d3" stroke="transparent" points="304.5,-10 304.5,-30 324.5,-30 324.5,-10 304.5,-10"/>
<text text-anchor="start" x="328.28" y="-15.4" font-family="Times-12" font-size="14.00"> &#160;Bootstrap</text>
<polygon fill="#fdb462" stroke="transparent" points="401.5,-10 401.5,-30 421.5,-30 421.5,-10 401.5,-10"/>
<text text-anchor="start" x="425.17" y="-15.4" font-family="Times-12" font-size="14.00"> &#160;Providers</text>
<polygon fill="#fb8072" stroke="transparent" points="497.5,-10 497.5,-30 517.5,-30 517.5,-10 497.5,-10"/>
<text text-anchor="start" x="521.23" y="-15.4" font-family="Times-12" font-size="14.00"> &#160;Exports</text>
<g id="clust1" class="cluster">
<title>cluster_MediaModule</title>
<polygon fill="none" stroke="black" stroke-dasharray="1,5" points="8,-70 8,-195 671,-195 671,-70 8,-70"/>
</g>
<g id="clust6" class="cluster">
<title>cluster_MediaModule_providers</title>
<polygon fill="none" stroke="black" points="517,-78 517,-130 663,-130 663,-78 517,-78"/>
</g>
<g id="clust3" class="cluster">
<title>cluster_MediaModule_imports</title>
<polygon fill="none" stroke="black" points="16,-78 16,-130 509,-130 509,-78 16,-78"/>
</g>
<!-- CommonModule -->
<g id="node1" class="node">
<title>CommonModule</title>
<polygon fill="#8dd3c7" stroke="black" points="500.67,-122 497.67,-126 476.67,-126 473.67,-122 389.33,-122 389.33,-86 500.67,-86 500.67,-122"/>
<text text-anchor="middle" x="445" y="-99.8" font-family="Times,serif" font-size="14.00">CommonModule</text>
</g>
<!-- MediaModule -->
<g id="node4" class="node">
<title>MediaModule</title>
<polygon fill="#8dd3c7" stroke="black" points="408.81,-187 405.81,-191 384.81,-191 381.81,-187 313.19,-187 313.19,-151 408.81,-151 408.81,-187"/>
<text text-anchor="middle" x="361" y="-164.8" font-family="Times,serif" font-size="14.00">MediaModule</text>
</g>
<!-- CommonModule&#45;&gt;MediaModule -->
<g id="edge1" class="edge">
<title>CommonModule&#45;&gt;MediaModule</title>
<path fill="none" stroke="black" d="M398.91,-122.11C398.91,-122.11 398.91,-140.99 398.91,-140.99"/>
<polygon fill="black" stroke="black" points="395.41,-140.99 398.91,-150.99 402.41,-140.99 395.41,-140.99"/>
</g>
<!-- GraphQLMicroserviceModule -->
<g id="node2" class="node">
<title>GraphQLMicroserviceModule</title>
<polygon fill="#8dd3c7" stroke="black" points="371.54,-122 368.54,-126 347.54,-126 344.54,-122 184.46,-122 184.46,-86 371.54,-86 371.54,-122"/>
<text text-anchor="middle" x="278" y="-99.8" font-family="Times,serif" font-size="14.00">GraphQLMicroserviceModule</text>
</g>
<!-- GraphQLMicroserviceModule&#45;&gt;MediaModule -->
<g id="edge2" class="edge">
<title>GraphQLMicroserviceModule&#45;&gt;MediaModule</title>
<path fill="none" stroke="black" d="M342.43,-122.11C342.43,-122.11 342.43,-140.99 342.43,-140.99"/>
<polygon fill="black" stroke="black" points="338.93,-140.99 342.43,-150.99 345.93,-140.99 338.93,-140.99"/>
</g>
<!-- JwtAuthGuardModule -->
<g id="node3" class="node">
<title>JwtAuthGuardModule</title>
<polygon fill="#8dd3c7" stroke="black" points="165.97,-122 162.97,-126 141.97,-126 138.97,-122 24.03,-122 24.03,-86 165.97,-86 165.97,-122"/>
<text text-anchor="middle" x="95" y="-99.8" font-family="Times,serif" font-size="14.00">JwtAuthGuardModule</text>
</g>
<!-- JwtAuthGuardModule&#45;&gt;MediaModule -->
<g id="edge3" class="edge">
<title>JwtAuthGuardModule&#45;&gt;MediaModule</title>
<path fill="none" stroke="black" d="M95,-122.11C95,-141.34 95,-169 95,-169 95,-169 303.14,-169 303.14,-169"/>
<polygon fill="black" stroke="black" points="303.14,-172.5 313.14,-169 303.14,-165.5 303.14,-172.5"/>
</g>
<!-- MediaService -->
<g id="node5" class="node">
<title>MediaService</title>
<ellipse fill="#fdb462" stroke="black" cx="590" cy="-104" rx="64.82" ry="18"/>
<text text-anchor="middle" x="590" y="-99.8" font-family="Times,serif" font-size="14.00">MediaService</text>
</g>
<!-- MediaService&#45;&gt;MediaModule -->
<g id="edge4" class="edge">
<title>MediaService&#45;&gt;MediaModule</title>
<path fill="none" stroke="black" d="M590,-122.11C590,-141.34 590,-169 590,-169 590,-169 418.73,-169 418.73,-169"/>
<polygon fill="black" stroke="black" points="418.73,-165.5 408.73,-169 418.73,-172.5 418.73,-165.5"/>
</g>
</g>
</svg>
